/*
Gigantisches Danke an https://github.com/robsoncouto/arduino-songs für die ganzen Noten für die Musik.
*/

#ifndef NWT_MUS_MUSIC_HPP
#define NWT_MUS_MUSIC_HPP

#include "notes.hpp"

const uint16_t trackStarts[] = {
  0, //Star Wars Theme 0 OK
  178, //Nokia 1 OK
  204, //Imperial March 2 OK
  378, //Tetris 3 OK
  542, //Für Elise 4 OK
  1748, //E1M1 (At Doom's Gate) 5 OK
  3108, //Super Mario Bros 6 OK
  3752, //Zelda Teheme 7 OK
  3972, //Take on me 8 OK
  4168, //Greenhill Sonic the Hedgehog 9 OK
  4514, //Pacman 10 OK
  4574, //Never gonna give up 11 OK
  5256, //Pink Panther 12 OK
  5432, //Ode to joy 13 OK
  5556, //Keyboard-Cat 14 OK
  5676, //Badinerie Bach 15 OK
  6158, //Star Trek 16 OK
  6182, //Silent Night 17 OK
  6276, //Happy Birthday 18 OK
  6326, //Jigglypuff 19 OK
  6402, //Hedwig's Theme 20 OK
  6526, //Pachelbel - Canon 21 OK
  6774, //Bloody Tears from Castlevania II 22 OK
  8128, //Minuet in G - C. Petzold 23 OK
  8508, //Song of storms - Legend of Zelda 24 OK
  8642, //Vampire Killer - Castlevania series 25 OK
  9146, //Brahms' Lullaby (Wiegenlied) 26 OK
  9254, //Mii Channel's theme 27 OK
  9826, //Alle meine Entchen OK
  9882, //Anthem of the USSR OK
  11092, //End //Did you expect an OK? This is the end.
};

const uint16_t trackTempo[] = {
  108, //Star Wars Theme 0
  180, //Nokia 1
  120, //Imperial March 2
  144, //Tetris 3
  80, //Für Elise 4
  225, //E1M1 (At Doom's Gate) 5
  200, //Super Mario Bros 6
  88, //Zelda Theme 7
  140, //Take on me 8
  140, //Greenhill Sonic the Hedgehog 9
  105, //Pacman 10
  114, //Never gonna give you up 11
  120, //Pink Panther 12
  114, //Ode to joy 13
  160, //Keyboard-Cat 14
  120, //Badinerie Bach 15
  80, //Star Trek 16
  140, //Silent Night 17
  100, //Happy Birthday 18
  85, //Jigglypuff 19
  144, //Hedwig's Theme 20
  100, //Pachelbel - Canon 21 
  144, //Bloody Tears from Castlevania II 22
  140, //Minuet in G - C. Petzold 23
  108, //Song of storms - Legend of Zelda 24
  130, //Vampire Killer - Castlevania series 25
  76, //Brahms' Lullaby (Wiegenlied) 26
  114, //Mii Channel's theme 27
  100, //Alle meine Entchen
  78, //Anthem of the USSR //Reaction to Fion's song that is often used by Fascists on Sylt
};

#define MAX_NAME_LENGTH 32

#ifdef LIGHT_DEBUG
  const PROGMEM char trackNames[30][MAX_NAME_LENGTH] = {
    "Star Wars Theme",
    "Nokia",
    "Imperial March",
    "Tetris (Korobeiniki)",
    "Fuer Elise",
    "E1M1 (At Doom's Gate)",
    "Super Mario Bros",
    "Zelda Theme",
    "Take on me",
    "Greenhill - Sonic",
    "Pacman",
    "Never gonna give you up",
    "Pink Panther",
    "Ode to joy",
    "Keyboard-Cat",
    "Badinerie - Bach",
    "Star Trek Intro",
    "Silent Night",
    "Happy Birthday",
    "Jigglypuff",
    "Hedwig's Theme",
    "Pachelbel - Canon",
    "Bloody Tears - Castlevania 2",
    "Minuet in G",
    "Song of Storms - Legend of Zelda",
    "Vampire Killer - Castlevania",
    "Brahms Lullaby (Wiegenlied)",
    "Mii Channel's Theme",
    "Alle meine Entchen",
    "Anthem of USSR" //Reaction to Fion's song that is often used by Fascists on Sylt // I do not support the mistakes made by the soviet union
  };
#endif

#define NUMBER_OF_TRACKS (sizeof(trackTempo) / sizeof(*trackTempo))

/*
Alle geraden indexe sind Noten und alle ungeraden sind "Teiler" sowas wie 4 für Viertelnote.
PROGMEM bestimmt, dass es im (aufm Arduino UNO) 64kb großen Speicher liegt.
Ist ROM (Read Only Memory).
*/

const PROGMEM int16_t tracks[] = {

  //STAR WARS THEME:

  NOTE_AS4,8, NOTE_AS4,8, NOTE_AS4,8,//1
  NOTE_F5,2, NOTE_C6,2,
  NOTE_AS5,8, NOTE_A5,8, NOTE_G5,8, NOTE_F6,2, NOTE_C6,4,  
  NOTE_AS5,8, NOTE_A5,8, NOTE_G5,8, NOTE_F6,2, NOTE_C6,4,  
  NOTE_AS5,8, NOTE_A5,8, NOTE_AS5,8, NOTE_G5,2, NOTE_C5,8, NOTE_C5,8, NOTE_C5,8,
  NOTE_F5,2, NOTE_C6,2,
  NOTE_AS5,8, NOTE_A5,8, NOTE_G5,8, NOTE_F6,2, NOTE_C6,4,  
  
  NOTE_AS5,8, NOTE_A5,8, NOTE_G5,8, NOTE_F6,2, NOTE_C6,4, //8  
  NOTE_AS5,8, NOTE_A5,8, NOTE_AS5,8, NOTE_G5,2, NOTE_C5,-8, NOTE_C5,16, 
  NOTE_D5,-4, NOTE_D5,8, NOTE_AS5,8, NOTE_A5,8, NOTE_G5,8, NOTE_F5,8,
  NOTE_F5,8, NOTE_G5,8, NOTE_A5,8, NOTE_G5,4, NOTE_D5,8, NOTE_E5,4,NOTE_C5,-8, NOTE_C5,16,
  NOTE_D5,-4, NOTE_D5,8, NOTE_AS5,8, NOTE_A5,8, NOTE_G5,8, NOTE_F5,8,
  
  NOTE_C6,-8, NOTE_G5,16, NOTE_G5,2, REST,8, NOTE_C5,8,//13
  NOTE_D5,-4, NOTE_D5,8, NOTE_AS5,8, NOTE_A5,8, NOTE_G5,8, NOTE_F5,8,
  NOTE_F5,8, NOTE_G5,8, NOTE_A5,8, NOTE_G5,4, NOTE_D5,8, NOTE_E5,4,NOTE_C6,-8, NOTE_C6,16,
  NOTE_F6,4, NOTE_DS6,8, NOTE_CS6,4, NOTE_C6,8, NOTE_AS5,4, NOTE_GS5,8, NOTE_G5,4, NOTE_F5,8,
  NOTE_C6,1,
  
  //Nokia

  NOTE_E5, 8, NOTE_D5, 8, NOTE_FS4, 4, NOTE_GS4, 4, 
  NOTE_CS5, 8, NOTE_B4, 8, NOTE_D4, 4, NOTE_E4, 4, 
  NOTE_B4, 8, NOTE_A4, 8, NOTE_CS4, 4, NOTE_E4, 4,
  NOTE_A4, 2, REST, 2,

  //Imperial March

  NOTE_A4,-4, NOTE_A4,-4, NOTE_A4,16, NOTE_A4,16, NOTE_A4,16, NOTE_A4,16, NOTE_F4,8, REST,8,
  NOTE_A4,-4, NOTE_A4,-4, NOTE_A4,16, NOTE_A4,16, NOTE_A4,16, NOTE_A4,16, NOTE_F4,8, REST,8,
  NOTE_A4,4, NOTE_A4,4, NOTE_A4,4, NOTE_F4,-8, NOTE_C5,16,

  NOTE_A4,4, NOTE_F4,-8, NOTE_C5,16, NOTE_A4,2,//4
  NOTE_E5,4, NOTE_E5,4, NOTE_E5,4, NOTE_F5,-8, NOTE_C5,16,
  NOTE_A4,4, NOTE_F4,-8, NOTE_C5,16, NOTE_A4,2,
  
  NOTE_A5,4, NOTE_A4,-8, NOTE_A4,16, NOTE_A5,4, NOTE_GS5,-8, NOTE_G5,16, //7 
  NOTE_DS5,16, NOTE_D5,16, NOTE_DS5,8, REST,8, NOTE_A4,8, NOTE_DS5,4, NOTE_D5,-8, NOTE_CS5,16,

  NOTE_C5,16, NOTE_B4,16, NOTE_C5,16, REST,8, NOTE_F4,8, NOTE_GS4,4, NOTE_F4,-8, NOTE_A4,-16,//9
  NOTE_C5,4, NOTE_A4,-8, NOTE_C5,16, NOTE_E5,2,

  NOTE_A5,4, NOTE_A4,-8, NOTE_A4,16, NOTE_A5,4, NOTE_GS5,-8, NOTE_G5,16, //7 
  NOTE_DS5,16, NOTE_D5,16, NOTE_DS5,8, REST,8, NOTE_A4,8, NOTE_DS5,4, NOTE_D5,-8, NOTE_CS5,16,

  NOTE_C5,16, NOTE_B4,16, NOTE_C5,16, REST,8, NOTE_F4,8, NOTE_GS4,4, NOTE_F4,-8, NOTE_A4,-16,//9
  NOTE_A4,4, NOTE_F4,-8, NOTE_C5,16, NOTE_A4,2,

  //Tetris

  NOTE_E5, 4,  NOTE_B4,8,  NOTE_C5,8,  NOTE_D5,4,  NOTE_C5,8,  NOTE_B4,8,
  NOTE_A4, 4,  NOTE_A4,8,  NOTE_C5,8,  NOTE_E5,4,  NOTE_D5,8,  NOTE_C5,8,
  NOTE_B4, -4,  NOTE_C5,8,  NOTE_D5,4,  NOTE_E5,4,
  NOTE_C5, 4,  NOTE_A4,4,  NOTE_A4,8,  NOTE_A4,4,  NOTE_B4,8,  NOTE_C5,8,

  NOTE_D5, -4,  NOTE_F5,8,  NOTE_A5,4,  NOTE_G5,8,  NOTE_F5,8,
  NOTE_E5, -4,  NOTE_C5,8,  NOTE_E5,4,  NOTE_D5,8,  NOTE_C5,8,
  NOTE_B4, 4,  NOTE_B4,8,  NOTE_C5,8,  NOTE_D5,4,  NOTE_E5,4,
  NOTE_C5, 4,  NOTE_A4,4,  NOTE_A4,4, REST, 4,

  NOTE_E5, 4,  NOTE_B4,8,  NOTE_C5,8,  NOTE_D5,4,  NOTE_C5,8,  NOTE_B4,8,
  NOTE_A4, 4,  NOTE_A4,8,  NOTE_C5,8,  NOTE_E5,4,  NOTE_D5,8,  NOTE_C5,8,
  NOTE_B4, -4,  NOTE_C5,8,  NOTE_D5,4,  NOTE_E5,4,
  NOTE_C5, 4,  NOTE_A4,4,  NOTE_A4,8,  NOTE_A4,4,  NOTE_B4,8,  NOTE_C5,8,

  NOTE_D5, -4,  NOTE_F5,8,  NOTE_A5,4,  NOTE_G5,8,  NOTE_F5,8,
  NOTE_E5, -4,  NOTE_C5,8,  NOTE_E5,4,  NOTE_D5,8,  NOTE_C5,8,
  NOTE_B4, 4,  NOTE_B4,8,  NOTE_C5,8,  NOTE_D5,4,  NOTE_E5,4,
  NOTE_C5, 4,  NOTE_A4,4,  NOTE_A4,4, REST, 4,

  //Für Elise

  //starts from 1 ending on 9
  NOTE_E5, 16, NOTE_DS5, 16, //1
  NOTE_E5, 16, NOTE_DS5, 16, NOTE_E5, 16, NOTE_B4, 16, NOTE_D5, 16, NOTE_C5, 16,
  NOTE_A4, -8, NOTE_C4, 16, NOTE_E4, 16, NOTE_A4, 16,
  NOTE_B4, -8, NOTE_E4, 16, NOTE_GS4, 16, NOTE_B4, 16,
  NOTE_C5, 8,  REST, 16, NOTE_E4, 16, NOTE_E5, 16,  NOTE_DS5, 16,
  
  NOTE_E5, 16, NOTE_DS5, 16, NOTE_E5, 16, NOTE_B4, 16, NOTE_D5, 16, NOTE_C5, 16,//6
  NOTE_A4, -8, NOTE_C4, 16, NOTE_E4, 16, NOTE_A4, 16, 
  NOTE_B4, -8, NOTE_E4, 16, NOTE_C5, 16, NOTE_B4, 16, 
  NOTE_A4 , 4, REST, 8, //9 - 1st ending

  //repaets from 1 ending on 10
  NOTE_E5, 16, NOTE_DS5, 16, //1
  NOTE_E5, 16, NOTE_DS5, 16, NOTE_E5, 16, NOTE_B4, 16, NOTE_D5, 16, NOTE_C5, 16,
  NOTE_A4, -8, NOTE_C4, 16, NOTE_E4, 16, NOTE_A4, 16,
  NOTE_B4, -8, NOTE_E4, 16, NOTE_GS4, 16, NOTE_B4, 16,
  NOTE_C5, 8,  REST, 16, NOTE_E4, 16, NOTE_E5, 16,  NOTE_DS5, 16,
  
  NOTE_E5, 16, NOTE_DS5, 16, NOTE_E5, 16, NOTE_B4, 16, NOTE_D5, 16, NOTE_C5, 16,//6
  NOTE_A4, -8, NOTE_C4, 16, NOTE_E4, 16, NOTE_A4, 16, 
  NOTE_B4, -8, NOTE_E4, 16, NOTE_C5, 16, NOTE_B4, 16, 
  NOTE_A4, 8, REST, 16, NOTE_B4, 16, NOTE_C5, 16, NOTE_D5, 16, //10 - 2nd ending
  //continues from 11
  NOTE_E5, -8, NOTE_G4, 16, NOTE_F5, 16, NOTE_E5, 16, 
  NOTE_D5, -8, NOTE_F4, 16, NOTE_E5, 16, NOTE_D5, 16, //12
  
  NOTE_C5, -8, NOTE_E4, 16, NOTE_D5, 16, NOTE_C5, 16, //13
  NOTE_B4, 8, REST, 16, NOTE_E4, 16, NOTE_E5, 16, REST, 16,
  REST, 16, NOTE_E5, 16, NOTE_E6, 16, REST, 16, REST, 16, NOTE_DS5, 16,
  NOTE_E5, 16, REST, 16, REST, 16, NOTE_DS5, 16, NOTE_E5, 16, NOTE_DS5, 16,
  NOTE_E5, 16, NOTE_DS5, 16, NOTE_E5, 16, NOTE_B4, 16, NOTE_D5, 16, NOTE_C5, 16,
  NOTE_A4, 8, REST, 16, NOTE_C4, 16, NOTE_E4, 16, NOTE_A4, 16,
  
  NOTE_B4, 8, REST, 16, NOTE_E4, 16, NOTE_GS4, 16, NOTE_B4, 16, //19
  NOTE_C5, 8, REST, 16, NOTE_E4, 16, NOTE_E5, 16,  NOTE_DS5, 16,
  NOTE_E5, 16, NOTE_DS5, 16, NOTE_E5, 16, NOTE_B4, 16, NOTE_D5, 16, NOTE_C5, 16,
  NOTE_A4, 8, REST, 16, NOTE_C4, 16, NOTE_E4, 16, NOTE_A4, 16,
  NOTE_B4, 8, REST, 16, NOTE_E4, 16, NOTE_C5, 16, NOTE_B4, 16,
  NOTE_A4, 8, REST, 16, NOTE_B4, 16, NOTE_C5, 16, NOTE_D5, 16, //24 (1st ending)
  
  //repeats from 11
  NOTE_E5, -8, NOTE_G4, 16, NOTE_F5, 16, NOTE_E5, 16, 
  NOTE_D5, -8, NOTE_F4, 16, NOTE_E5, 16, NOTE_D5, 16, //12
  
  NOTE_C5, -8, NOTE_E4, 16, NOTE_D5, 16, NOTE_C5, 16, //13
  NOTE_B4, 8, REST, 16, NOTE_E4, 16, NOTE_E5, 16, REST, 16,
  REST, 16, NOTE_E5, 16, NOTE_E6, 16, REST, 16, REST, 16, NOTE_DS5, 16,
  NOTE_E5, 16, REST, 16, REST, 16, NOTE_DS5, 16, NOTE_E5, 16, NOTE_DS5, 16,
  NOTE_E5, 16, NOTE_DS5, 16, NOTE_E5, 16, NOTE_B4, 16, NOTE_D5, 16, NOTE_C5, 16,
  NOTE_A4, 8, REST, 16, NOTE_C4, 16, NOTE_E4, 16, NOTE_A4, 16,
  
  NOTE_B4, 8, REST, 16, NOTE_E4, 16, NOTE_GS4, 16, NOTE_B4, 16, //19
  NOTE_C5, 8, REST, 16, NOTE_E4, 16, NOTE_E5, 16,  NOTE_DS5, 16,
  NOTE_E5, 16, NOTE_DS5, 16, NOTE_E5, 16, NOTE_B4, 16, NOTE_D5, 16, NOTE_C5, 16,
  NOTE_A4, 8, REST, 16, NOTE_C4, 16, NOTE_E4, 16, NOTE_A4, 16,
  NOTE_B4, 8, REST, 16, NOTE_E4, 16, NOTE_C5, 16, NOTE_B4, 16,
  NOTE_A4, 8, REST, 16, NOTE_C5, 16, NOTE_C5, 16, NOTE_C5, 16, //25 - 2nd ending

  //continues from 26
  NOTE_C5 , 4, NOTE_F5, -16, NOTE_E5, 32, //26
  NOTE_E5, 8, NOTE_D5, 8, NOTE_AS5, -16, NOTE_A5, 32,
  NOTE_A5, 16, NOTE_G5, 16, NOTE_F5, 16, NOTE_E5, 16, NOTE_D5, 16, NOTE_C5, 16,
  NOTE_AS4, 8, NOTE_A4, 8, NOTE_A4, 32, NOTE_G4, 32, NOTE_A4, 32, NOTE_B4, 32,
  NOTE_C5 , 4, NOTE_D5, 16, NOTE_DS5, 16,
  NOTE_E5, -8, NOTE_E5, 16, NOTE_F5, 16, NOTE_A4, 16,
  NOTE_C5 , 4,  NOTE_D5, -16, NOTE_B4, 32,
  
  
  NOTE_C5, 32, NOTE_G5, 32, NOTE_G4, 32, NOTE_G5, 32, NOTE_A4, 32, NOTE_G5, 32, NOTE_B4, 32, NOTE_G5, 32, NOTE_C5, 32, NOTE_G5, 32, NOTE_D5, 32, NOTE_G5, 32, //33
  NOTE_E5, 32, NOTE_G5, 32, NOTE_C6, 32, NOTE_B5, 32, NOTE_A5, 32, NOTE_G5, 32, NOTE_F5, 32, NOTE_E5, 32, NOTE_D5, 32, NOTE_G5, 32, NOTE_F5, 32, NOTE_D5, 32,
  NOTE_C5, 32, NOTE_G5, 32, NOTE_G4, 32, NOTE_G5, 32, NOTE_A4, 32, NOTE_G5, 32, NOTE_B4, 32, NOTE_G5, 32, NOTE_C5, 32, NOTE_G5, 32, NOTE_D5, 32, NOTE_G5, 32,

  NOTE_E5, 32, NOTE_G5, 32, NOTE_C6, 32, NOTE_B5, 32, NOTE_A5, 32, NOTE_G5, 32, NOTE_F5, 32, NOTE_E5, 32, NOTE_D5, 32, NOTE_G5, 32, NOTE_F5, 32, NOTE_D5, 32, //36
  NOTE_E5, 32, NOTE_F5, 32, NOTE_E5, 32, NOTE_DS5, 32, NOTE_E5, 32, NOTE_B4, 32, NOTE_E5, 32, NOTE_DS5, 32, NOTE_E5, 32, NOTE_B4, 32, NOTE_E5, 32, NOTE_DS5, 32,
  NOTE_E5, -8, NOTE_B4, 16, NOTE_E5, 16, NOTE_DS5, 16,
  NOTE_E5, -8, NOTE_B4, 16, NOTE_E5, 16, REST, 16,

  REST, 16, NOTE_DS5, 16, NOTE_E5, 16, REST, 16, REST, 16, NOTE_DS5, 16, //40
  NOTE_E5, 16, NOTE_DS5, 16, NOTE_E5, 16, NOTE_B4, 16, NOTE_D5, 16, NOTE_C5, 16,
  NOTE_A4, 8, REST, 16, NOTE_C4, 16, NOTE_E4, 16, NOTE_A4, 16,
  NOTE_B4, 8, REST, 16, NOTE_E4, 16, NOTE_GS4, 16, NOTE_B4, 16,
  NOTE_C5, 8, REST, 16, NOTE_E4, 16, NOTE_E5, 16, NOTE_DS5, 16,
  NOTE_E5, 16, NOTE_DS5, 16, NOTE_E5, 16, NOTE_B4, 16, NOTE_D5, 16, NOTE_C5, 16,

  NOTE_A4, 8, REST, 16, NOTE_C4, 16, NOTE_E4, 16, NOTE_A4, 16, //46
  NOTE_B4, 8, REST, 16, NOTE_E4, 16, NOTE_C5, 16, NOTE_B4, 16,
  NOTE_A4, 8, REST, 16, NOTE_B4, 16, NOTE_C5, 16, NOTE_D5, 16,
  NOTE_E5, -8, NOTE_G4, 16, NOTE_F5, 16, NOTE_E5, 16,
  NOTE_D5, -8, NOTE_F4, 16, NOTE_E5, 16, NOTE_D5, 16,
  NOTE_C5, -8, NOTE_E4, 16, NOTE_D5, 16, NOTE_C5, 16,
  NOTE_B4, 8, REST, 16, NOTE_E4, 16, NOTE_E5, 16, REST, 16,
  REST, 16, NOTE_E5, 16, NOTE_E6, 16, REST, 16, REST, 16, NOTE_DS5, 16,

  NOTE_E5, 16, REST, 16, REST, 16, NOTE_DS5, 16, NOTE_E5, 16, NOTE_D5, 16, //54
  NOTE_E5, 16, NOTE_DS5, 16, NOTE_E5, 16, NOTE_B4, 16, NOTE_D5, 16, NOTE_C5, 16,
  NOTE_A4, 8, REST, 16, NOTE_C4, 16, NOTE_E4, 16, NOTE_A4, 16,
  NOTE_B4, 8, REST, 16, NOTE_E4, 16, NOTE_GS4, 16, NOTE_B4, 16,
  NOTE_C5, 8, REST, 16, NOTE_E4, 16, NOTE_E5, 16, NOTE_DS5, 16,
  NOTE_E5, 16, NOTE_DS5, 16, NOTE_E5, 16, NOTE_B4, 16, NOTE_D5, 16, NOTE_C5, 16,
  
  NOTE_A4, 8, REST, 16, NOTE_C4, 16, NOTE_E4, 16, NOTE_A4, 16, //60
  NOTE_B4, 8, REST, 16, NOTE_E4, 16, NOTE_C5, 16, NOTE_B4, 16,
  NOTE_A4, 8, REST, 16, REST, 16, REST, 8, 
  NOTE_CS5 , -4, 
  NOTE_D5 , 4, NOTE_E5, 16, NOTE_F5, 16,
  NOTE_F5 , 4, NOTE_F5, 8, 
  NOTE_E5 , -4,
  NOTE_D5 , 4, NOTE_C5, 16, NOTE_B4, 16,
  NOTE_A4 , 4, NOTE_A4, 8,
  NOTE_A4, 8, NOTE_C5, 8, NOTE_B4, 8,
  NOTE_A4 , -4,
  NOTE_CS5 , -4,

  NOTE_D5 , 4, NOTE_E5, 16, NOTE_F5, 16, //72
  NOTE_F5 , 4, NOTE_F5, 8,
  NOTE_F5 , -4,
  NOTE_DS5 , 4, NOTE_D5, 16, NOTE_C5, 16,
  NOTE_AS4 , 4, NOTE_A4, 8,
  NOTE_GS4 , 4, NOTE_G4, 8,
  NOTE_A4 , -4,
  NOTE_B4 , 4, REST, 8,
  NOTE_A3, -32, NOTE_C4, -32, NOTE_E4, -32, NOTE_A4, -32, NOTE_C5, -32, NOTE_E5, -32, NOTE_D5, -32, NOTE_C5, -32, NOTE_B4, -32,

  NOTE_A4, -32, NOTE_C5, -32, NOTE_E5, -32, NOTE_A5, -32, NOTE_C6, -32, NOTE_E6, -32, NOTE_D6, -32, NOTE_C6, -32, NOTE_B5, -32, //80
  NOTE_A4, -32, NOTE_C5, -32, NOTE_E5, -32, NOTE_A5, -32, NOTE_C6, -32, NOTE_E6, -32, NOTE_D6, -32, NOTE_C6, -32, NOTE_B5, -32,
  NOTE_AS5, -32, NOTE_A5, -32, NOTE_GS5, -32, NOTE_G5, -32, NOTE_FS5, -32, NOTE_F5, -32, NOTE_E5, -32, NOTE_DS5, -32, NOTE_D5, -32,

  NOTE_CS5, -32, NOTE_C5, -32, NOTE_B4, -32, NOTE_AS4, -32, NOTE_A4, -32, NOTE_GS4, -32, NOTE_G4, -32, NOTE_FS4, -32, NOTE_F4, -32, //84
  NOTE_E4, 16, NOTE_DS5, 16, NOTE_E5, 16, NOTE_B4, 16, NOTE_D5, 16, NOTE_C5, 16,
  NOTE_A4, -8, NOTE_C4, 16, NOTE_E4, 16, NOTE_A4, 16,
  NOTE_B4, -8, NOTE_E4, 16, NOTE_GS4, 16, NOTE_B4, 16,

  NOTE_C5, 8, REST, 16, NOTE_E4, 16, NOTE_E5, 16, NOTE_DS5, 16, //88
  NOTE_E5, 16, NOTE_DS5, 16, NOTE_E5, 16, NOTE_B4, 16, NOTE_D5, 16, NOTE_C5, 16, 
  NOTE_A4, -8, NOTE_C4, 16, NOTE_E4, 16, NOTE_A4, 16, 
  NOTE_B4, -8, NOTE_E4, 16, NOTE_C5, 16, NOTE_B4, 16, 
  NOTE_A4, -8, REST, -8,
  REST, -8, NOTE_G4, 16, NOTE_F5, 16, NOTE_E5, 16,
  NOTE_D5 , 4, REST, 8,
  REST, -8, NOTE_E4, 16, NOTE_D5, 16, NOTE_C5, 16,
  
  NOTE_B4, -8, NOTE_E4, 16, NOTE_E5, 8, //96
  NOTE_E5, 8, NOTE_E6, -8, NOTE_DS5, 16,
  NOTE_E5, 16, REST, 16, REST, 16, NOTE_DS5, 16, NOTE_E5, 16, NOTE_DS5, 16,
  NOTE_E5, 16, NOTE_DS5, 16, NOTE_E5, 16, NOTE_B4, 16, NOTE_D5, 16, NOTE_C5, 16,
  NOTE_A4, -8, NOTE_C4, 16, NOTE_E4, 16, NOTE_A4, 16,
  NOTE_B4, -8, NOTE_E4, 16, NOTE_GS4, 16, NOTE_B4, 16,

  NOTE_C5, 8, REST, 16, NOTE_E4, 16, NOTE_E5, 16, NOTE_DS5, 16, //102
  NOTE_E5, 16, NOTE_DS5, 16, NOTE_E5, 16, NOTE_B4, 16, NOTE_D5, 16, NOTE_C5, 16,
  NOTE_A4, -8, NOTE_C4, 16, NOTE_E4, 16, NOTE_A4, 16,
  NOTE_B4, -8, NOTE_E4, 16, NOTE_C5, 16, NOTE_B4, 16,
  NOTE_A4 , -4,

  //E1M1

  NOTE_E2, 8, NOTE_E2, 8, NOTE_E3, 8, NOTE_E2, 8, NOTE_E2, 8, NOTE_D3, 8, NOTE_E2, 8, NOTE_E2, 8, //1
  NOTE_C3, 8, NOTE_E2, 8, NOTE_E2, 8, NOTE_AS2, 8, NOTE_E2, 8, NOTE_E2, 8, NOTE_B2, 8, NOTE_C3, 8,
  NOTE_E2, 8, NOTE_E2, 8, NOTE_E3, 8, NOTE_E2, 8, NOTE_E2, 8, NOTE_D3, 8, NOTE_E2, 8, NOTE_E2, 8,
  NOTE_C3, 8, NOTE_E2, 8, NOTE_E2, 8, NOTE_AS2, -2,

  NOTE_E2, 8, NOTE_E2, 8, NOTE_E3, 8, NOTE_E2, 8, NOTE_E2, 8, NOTE_D3, 8, NOTE_E2, 8, NOTE_E2, 8, //5
  NOTE_C3, 8, NOTE_E2, 8, NOTE_E2, 8, NOTE_AS2, 8, NOTE_E2, 8, NOTE_E2, 8, NOTE_B2, 8, NOTE_C3, 8,
  NOTE_E2, 8, NOTE_E2, 8, NOTE_E3, 8, NOTE_E2, 8, NOTE_E2, 8, NOTE_D3, 8, NOTE_E2, 8, NOTE_E2, 8,
  NOTE_C3, 8, NOTE_E2, 8, NOTE_E2, 8, NOTE_AS2, -2,

  NOTE_E2, 8, NOTE_E2, 8, NOTE_E3, 8, NOTE_E2, 8, NOTE_E2, 8, NOTE_D3, 8, NOTE_E2, 8, NOTE_E2, 8, //9
  NOTE_C3, 8, NOTE_E2, 8, NOTE_E2, 8, NOTE_AS2, 8, NOTE_E2, 8, NOTE_E2, 8, NOTE_B2, 8, NOTE_C3, 8,
  NOTE_E2, 8, NOTE_E2, 8, NOTE_E3, 8, NOTE_E2, 8, NOTE_E2, 8, NOTE_D3, 8, NOTE_E2, 8, NOTE_E2, 8,
  NOTE_C3, 8, NOTE_E2, 8, NOTE_E2, 8, NOTE_AS2, -2,

  NOTE_E2, 8, NOTE_E2, 8, NOTE_E3, 8, NOTE_E2, 8, NOTE_E2, 8, NOTE_D3, 8, NOTE_E2, 8, NOTE_E2, 8, //13
  NOTE_C3, 8, NOTE_E2, 8, NOTE_E2, 8, NOTE_AS2, 8, NOTE_E2, 8, NOTE_E2, 8, NOTE_B2, 8, NOTE_C3, 8,
  NOTE_E2, 8, NOTE_E2, 8, NOTE_E3, 8, NOTE_E2, 8, NOTE_E2, 8, NOTE_D3, 8, NOTE_E2, 8, NOTE_E2, 8,
  NOTE_FS3, -16, NOTE_D3, -16, NOTE_B2, -16, NOTE_A3, -16, NOTE_FS3, -16, NOTE_B2, -16, NOTE_D3, -16, NOTE_FS3, -16, NOTE_A3, -16, NOTE_FS3, -16, NOTE_D3, -16, NOTE_B2, -16,

  NOTE_E2, 8, NOTE_E2, 8, NOTE_E3, 8, NOTE_E2, 8, NOTE_E2, 8, NOTE_D3, 8, NOTE_E2, 8, NOTE_E2, 8, //17
  NOTE_C3, 8, NOTE_E2, 8, NOTE_E2, 8, NOTE_AS2, 8, NOTE_E2, 8, NOTE_E2, 8, NOTE_B2, 8, NOTE_C3, 8,
  NOTE_E2, 8, NOTE_E2, 8, NOTE_E3, 8, NOTE_E2, 8, NOTE_E2, 8, NOTE_D3, 8, NOTE_E2, 8, NOTE_E2, 8,
  NOTE_C3, 8, NOTE_E2, 8, NOTE_E2, 8, NOTE_AS2, -2,

  NOTE_E2, 8, NOTE_E2, 8, NOTE_E3, 8, NOTE_E2, 8, NOTE_E2, 8, NOTE_D3, 8, NOTE_E2, 8, NOTE_E2, 8, //21
  NOTE_C3, 8, NOTE_E2, 8, NOTE_E2, 8, NOTE_AS2, 8, NOTE_E2, 8, NOTE_E2, 8, NOTE_B2, 8, NOTE_C3, 8,
  NOTE_E2, 8, NOTE_E2, 8, NOTE_E3, 8, NOTE_E2, 8, NOTE_E2, 8, NOTE_D3, 8, NOTE_E2, 8, NOTE_E2, 8,
  NOTE_B3, -16, NOTE_G3, -16, NOTE_E3, -16, NOTE_G3, -16, NOTE_B3, -16, NOTE_E4, -16, NOTE_G3, -16, NOTE_B3, -16, NOTE_E4, -16, NOTE_B3, -16, NOTE_G4, -16, NOTE_B4, -16,

  NOTE_A2, 8, NOTE_A2, 8, NOTE_A3, 8, NOTE_A2, 8, NOTE_A2, 8, NOTE_G3, 8, NOTE_A2, 8, NOTE_A2, 8, //25
  NOTE_F3, 8, NOTE_A2, 8, NOTE_A2, 8, NOTE_DS3, 8, NOTE_A2, 8, NOTE_A2, 8, NOTE_E3, 8, NOTE_F3, 8,
  NOTE_A2, 8, NOTE_A2, 8, NOTE_A3, 8, NOTE_A2, 8, NOTE_A2, 8, NOTE_G3, 8, NOTE_A2, 8, NOTE_A2, 8,
  NOTE_F3, 8, NOTE_A2, 8, NOTE_A2, 8, NOTE_DS3, -2,

  NOTE_A2, 8, NOTE_A2, 8, NOTE_A3, 8, NOTE_A2, 8, NOTE_A2, 8, NOTE_G3, 8, NOTE_A2, 8, NOTE_A2, 8, //29
  NOTE_F3, 8, NOTE_A2, 8, NOTE_A2, 8, NOTE_DS3, 8, NOTE_A2, 8, NOTE_A2, 8, NOTE_E3, 8, NOTE_F3, 8,
  NOTE_A2, 8, NOTE_A2, 8, NOTE_A3, 8, NOTE_A2, 8, NOTE_A2, 8, NOTE_G3, 8, NOTE_A2, 8, NOTE_A2, 8,
  NOTE_A3, -16, NOTE_F3, -16, NOTE_D3, -16, NOTE_A3, -16, NOTE_F3, -16, NOTE_D3, -16, NOTE_C4, -16, NOTE_A3, -16, NOTE_F3, -16, NOTE_A3, -16, NOTE_F3, -16, NOTE_D3, -16,

  NOTE_E2, 8, NOTE_E2, 8, NOTE_E3, 8, NOTE_E2, 8, NOTE_E2, 8, NOTE_D3, 8, NOTE_E2, 8, NOTE_E2, 8, //33
  NOTE_C3, 8, NOTE_E2, 8, NOTE_E2, 8, NOTE_AS2, 8, NOTE_E2, 8, NOTE_E2, 8, NOTE_B2, 8, NOTE_C3, 8,
  NOTE_E2, 8, NOTE_E2, 8, NOTE_E3, 8, NOTE_E2, 8, NOTE_E2, 8, NOTE_D3, 8, NOTE_E2, 8, NOTE_E2, 8,
  NOTE_C3, 8, NOTE_E2, 8, NOTE_E2, 8, NOTE_AS2, -2,

  NOTE_E2, 8, NOTE_E2, 8, NOTE_E3, 8, NOTE_E2, 8, NOTE_E2, 8, NOTE_D3, 8, NOTE_E2, 8, NOTE_E2, 8, //37
  NOTE_C3, 8, NOTE_E2, 8, NOTE_E2, 8, NOTE_AS2, 8, NOTE_E2, 8, NOTE_E2, 8, NOTE_B2, 8, NOTE_C3, 8,
  NOTE_E2, 8, NOTE_E2, 8, NOTE_E3, 8, NOTE_E2, 8, NOTE_E2, 8, NOTE_D3, 8, NOTE_E2, 8, NOTE_E2, 8,
  NOTE_C3, 8, NOTE_E2, 8, NOTE_E2, 8, NOTE_AS2, -2,

  NOTE_CS3, 8, NOTE_CS3, 8, NOTE_CS4, 8, NOTE_CS3, 8, NOTE_CS3, 8, NOTE_B3, 8, NOTE_CS3, 8, NOTE_CS3, 8, //41
  NOTE_A3, 8, NOTE_CS3, 8, NOTE_CS3, 8, NOTE_G3, 8, NOTE_CS3, 8, NOTE_CS3, 8, NOTE_GS3, 8, NOTE_A3, 8,
  NOTE_B2, 8, NOTE_B2, 8, NOTE_B3, 8, NOTE_B2, 8, NOTE_B2, 8, NOTE_A3, 8, NOTE_B2, 8, NOTE_B2, 8,
  NOTE_G3, 8, NOTE_B2, 8, NOTE_B2, 8, NOTE_F3, -2,

  NOTE_E2, 8, NOTE_E2, 8, NOTE_E3, 8, NOTE_E2, 8, NOTE_E2, 8, NOTE_D3, 8, NOTE_E2, 8, NOTE_E2, 8, //45
  NOTE_C3, 8, NOTE_E2, 8, NOTE_E2, 8, NOTE_AS2, 8, NOTE_E2, 8, NOTE_E2, 8, NOTE_B2, 8, NOTE_C3, 8,
  NOTE_E2, 8, NOTE_E2, 8, NOTE_E3, 8, NOTE_E2, 8, NOTE_E2, 8, NOTE_D3, 8, NOTE_E2, 8, NOTE_E2, 8,
  NOTE_B3, -16, NOTE_G3, -16, NOTE_E3, -16, NOTE_G3, -16, NOTE_B3, -16, NOTE_E4, -16, NOTE_G3, -16, NOTE_B3, -16, NOTE_E4, -16, NOTE_B3, -16, NOTE_G4, -16, NOTE_B4, -16,

  NOTE_E2, 8, NOTE_E2, 8, NOTE_E3, 8, NOTE_E2, 8, NOTE_E2, 8, NOTE_D3, 8, NOTE_E2, 8, NOTE_E2, 8, //49
  NOTE_C3, 8, NOTE_E2, 8, NOTE_E2, 8, NOTE_AS2, 8, NOTE_E2, 8, NOTE_E2, 8, NOTE_B2, 8, NOTE_C3, 8,
  NOTE_E2, 8, NOTE_E2, 8, NOTE_E3, 8, NOTE_E2, 8, NOTE_E2, 8, NOTE_D3, 8, NOTE_E2, 8, NOTE_E2, 8,
  NOTE_C3, 8, NOTE_E2, 8, NOTE_E2, 8, NOTE_AS2, -2,

  NOTE_E2, 8, NOTE_E2, 8, NOTE_E3, 8, NOTE_E2, 8, NOTE_E2, 8, NOTE_D3, 8, NOTE_E2, 8, NOTE_E2, 8, //53
  NOTE_C3, 8, NOTE_E2, 8, NOTE_E2, 8, NOTE_AS2, 8, NOTE_E2, 8, NOTE_E2, 8, NOTE_B2, 8, NOTE_C3, 8,
  NOTE_E2, 8, NOTE_E2, 8, NOTE_E3, 8, NOTE_E2, 8, NOTE_E2, 8, NOTE_D3, 8, NOTE_E2, 8, NOTE_E2, 8,
  NOTE_FS3, -16, NOTE_DS3, -16, NOTE_B2, -16, NOTE_FS3, -16, NOTE_DS3, -16, NOTE_B2, -16, NOTE_G3, -16, NOTE_D3, -16, NOTE_B2, -16, NOTE_DS4, -16, NOTE_DS3, -16, NOTE_B2, -16,

// -/-

  NOTE_E2, 8, NOTE_E2, 8, NOTE_E3, 8, NOTE_E2, 8, NOTE_E2, 8, NOTE_D3, 8, NOTE_E2, 8, NOTE_E2, 8, //57
  NOTE_C3, 8, NOTE_E2, 8, NOTE_E2, 8, NOTE_AS2, 8, NOTE_E2, 8, NOTE_E2, 8, NOTE_B2, 8, NOTE_C3, 8,
  NOTE_E2, 8, NOTE_E2, 8, NOTE_E3, 8, NOTE_E2, 8, NOTE_E2, 8, NOTE_D3, 8, NOTE_E2, 8, NOTE_E2, 8,
  NOTE_C3, 8, NOTE_E2, 8, NOTE_E2, 8, NOTE_AS2, -2,

  NOTE_E2, 8, NOTE_E2, 8, NOTE_E3, 8, NOTE_E2, 8, NOTE_E2, 8, NOTE_D3, 8, NOTE_E2, 8, NOTE_E2, 8, //61
  NOTE_C3, 8, NOTE_E2, 8, NOTE_E2, 8, NOTE_AS2, 8, NOTE_E2, 8, NOTE_E2, 8, NOTE_B2, 8, NOTE_C3, 8,
  NOTE_E2, 8, NOTE_E2, 8, NOTE_E3, 8, NOTE_E2, 8, NOTE_E2, 8, NOTE_D3, 8, NOTE_E2, 8, NOTE_E2, 8,
  NOTE_E4, -16, NOTE_B3, -16, NOTE_G3, -16, NOTE_G4, -16, NOTE_E4, -16, NOTE_G3, -16, NOTE_B3, -16, NOTE_D4, -16, NOTE_E4, -16, NOTE_G4, -16, NOTE_E4, -16, NOTE_G3, -16,  

  NOTE_E2, 8, NOTE_E2, 8, NOTE_E3, 8, NOTE_E2, 8, NOTE_E2, 8, NOTE_D3, 8, NOTE_E2, 8, NOTE_E2, 8, //65
  NOTE_C3, 8, NOTE_E2, 8, NOTE_E2, 8, NOTE_AS2, 8, NOTE_E2, 8, NOTE_E2, 8, NOTE_B2, 8, NOTE_C3, 8,
  NOTE_E2, 8, NOTE_E2, 8, NOTE_E3, 8, NOTE_E2, 8, NOTE_E2, 8, NOTE_D3, 8, NOTE_E2, 8, NOTE_E2, 8,
  NOTE_C3, 8, NOTE_E2, 8, NOTE_E2, 8, NOTE_AS2, -2,

  NOTE_A2, 8, NOTE_A2, 8, NOTE_A3, 8, NOTE_A2, 8, NOTE_A2, 8, NOTE_G3, 8, NOTE_A2, 8, NOTE_A2, 8, //69
  NOTE_F3, 8, NOTE_A2, 8, NOTE_A2, 8, NOTE_DS3, 8, NOTE_A2, 8, NOTE_A2, 8, NOTE_E3, 8, NOTE_F3, 8,
  NOTE_A2, 8, NOTE_A2, 8, NOTE_A3, 8, NOTE_A2, 8, NOTE_A2, 8, NOTE_G3, 8, NOTE_A2, 8, NOTE_A2, 8,
  NOTE_A3, -16, NOTE_F3, -16, NOTE_D3, -16, NOTE_A3, -16, NOTE_F3, -16, NOTE_D3, -16, NOTE_C4, -16, NOTE_A3, -16, NOTE_F3, -16, NOTE_A3, -16, NOTE_F3, -16, NOTE_D3, -16,

  NOTE_E2, 8, NOTE_E2, 8, NOTE_E3, 8, NOTE_E2, 8, NOTE_E2, 8, NOTE_D3, 8, NOTE_E2, 8, NOTE_E2, 8, //73
  NOTE_C3, 8, NOTE_E2, 8, NOTE_E2, 8, NOTE_AS2, 8, NOTE_E2, 8, NOTE_E2, 8, NOTE_B2, 8, NOTE_C3, 8,
  NOTE_E2, 8, NOTE_E2, 8, NOTE_E3, 8, NOTE_E2, 8, NOTE_E2, 8, NOTE_D3, 8, NOTE_E2, 8, NOTE_E2, 8,
  NOTE_C3, 8, NOTE_E2, 8, NOTE_E2, 8, NOTE_AS2, -2,

  NOTE_E2, 8, NOTE_E2, 8, NOTE_E3, 8, NOTE_E2, 8, NOTE_E2, 8, NOTE_D3, 8, NOTE_E2, 8, NOTE_E2, 8, //77
  NOTE_C3, 8, NOTE_E2, 8, NOTE_E2, 8, NOTE_AS2, 8, NOTE_E2, 8, NOTE_E2, 8, NOTE_B2, 8, NOTE_C3, 8,
  NOTE_E2, 8, NOTE_E2, 8, NOTE_E3, 8, NOTE_E2, 8, NOTE_E2, 8, NOTE_D3, 8, NOTE_E2, 8, NOTE_E2, 8,
  NOTE_C3, 8, NOTE_E2, 8, NOTE_E2, 8, NOTE_AS2, -2,

  NOTE_E2, 8, NOTE_E2, 8, NOTE_E3, 8, NOTE_E2, 8, NOTE_E2, 8, NOTE_D3, 8, NOTE_E2, 8, NOTE_E2, 8, //81
  NOTE_C3, 8, NOTE_E2, 8, NOTE_E2, 8, NOTE_AS2, 8, NOTE_E2, 8, NOTE_E2, 8, NOTE_B2, 8, NOTE_C3, 8,
  NOTE_E2, 8, NOTE_E2, 8, NOTE_E3, 8, NOTE_E2, 8, NOTE_E2, 8, NOTE_D3, 8, NOTE_E2, 8, NOTE_E2, 8,
  NOTE_C3, 8, NOTE_E2, 8, NOTE_E2, 8, NOTE_AS2, -2,

  NOTE_E2, 8, NOTE_E2, 8, NOTE_E3, 8, NOTE_E2, 8, NOTE_E2, 8, NOTE_D3, 8, NOTE_E2, 8, NOTE_E2, 8, //73
  NOTE_C3, 8, NOTE_E2, 8, NOTE_E2, 8, NOTE_AS2, 8, NOTE_E2, 8, NOTE_E2, 8, NOTE_B2, 8, NOTE_C3, 8,
  NOTE_E2, 8, NOTE_E2, 8, NOTE_E3, 8, NOTE_E2, 8, NOTE_E2, 8, NOTE_D3, 8, NOTE_E2, 8, NOTE_E2, 8,
  NOTE_B3, -16, NOTE_G3, -16, NOTE_E3, -16, NOTE_B2, -16, NOTE_E3, -16, NOTE_G3, -16, NOTE_C4, -16, NOTE_B3, -16, NOTE_G3, -16, NOTE_B3, -16, NOTE_G3, -16, NOTE_E3, -16,
  REST, 2,

  //Super Mario Bros

  NOTE_E5,8, NOTE_E5,8, REST,8, NOTE_E5,8, REST,8, NOTE_C5,8, NOTE_E5,8, //1
  NOTE_G5,4, REST,4, NOTE_G4,8, REST,4, 
  NOTE_C5,-4, NOTE_G4,8, REST,4, NOTE_E4,-4, // 3
  NOTE_A4,4, NOTE_B4,4, NOTE_AS4,8, NOTE_A4,4,
  NOTE_G4,-8, NOTE_E5,-8, NOTE_G5,-8, NOTE_A5,4, NOTE_F5,8, NOTE_G5,8,
  REST,8, NOTE_E5,4,NOTE_C5,8, NOTE_D5,8, NOTE_B4,-4,
  NOTE_C5,-4, NOTE_G4,8, REST,4, NOTE_E4,-4, // repeats from 3
  NOTE_A4,4, NOTE_B4,4, NOTE_AS4,8, NOTE_A4,4,
  NOTE_G4,-8, NOTE_E5,-8, NOTE_G5,-8, NOTE_A5,4, NOTE_F5,8, NOTE_G5,8,
  REST,8, NOTE_E5,4,NOTE_C5,8, NOTE_D5,8, NOTE_B4,-4,

  
  REST,4, NOTE_G5,8, NOTE_FS5,8, NOTE_F5,8, NOTE_DS5,4, NOTE_E5,8,//7
  REST,8, NOTE_GS4,8, NOTE_A4,8, NOTE_C4,8, REST,8, NOTE_A4,8, NOTE_C5,8, NOTE_D5,8,
  REST,4, NOTE_DS5,4, REST,8, NOTE_D5,-4,
  NOTE_C5,2, REST,2,

  REST,4, NOTE_G5,8, NOTE_FS5,8, NOTE_F5,8, NOTE_DS5,4, NOTE_E5,8,//repeats from 7
  REST,8, NOTE_GS4,8, NOTE_A4,8, NOTE_C4,8, REST,8, NOTE_A4,8, NOTE_C5,8, NOTE_D5,8,
  REST,4, NOTE_DS5,4, REST,8, NOTE_D5,-4,
  NOTE_C5,2, REST,2,

  NOTE_C5,8, NOTE_C5,4, NOTE_C5,8, REST,8, NOTE_C5,8, NOTE_D5,4,//11
  NOTE_E5,8, NOTE_C5,4, NOTE_A4,8, NOTE_G4,2,

  NOTE_C5,8, NOTE_C5,4, NOTE_C5,8, REST,8, NOTE_C5,8, NOTE_D5,8, NOTE_E5,8,//13
  REST,1, 
  NOTE_C5,8, NOTE_C5,4, NOTE_C5,8, REST,8, NOTE_C5,8, NOTE_D5,4,
  NOTE_E5,8, NOTE_C5,4, NOTE_A4,8, NOTE_G4,2,
  NOTE_E5,8, NOTE_E5,8, REST,8, NOTE_E5,8, REST,8, NOTE_C5,8, NOTE_E5,4,
  NOTE_G5,4, REST,4, NOTE_G4,4, REST,4, 
  NOTE_C5,-4, NOTE_G4,8, REST,4, NOTE_E4,-4, // 19
  
  NOTE_A4,4, NOTE_B4,4, NOTE_AS4,8, NOTE_A4,4,
  NOTE_G4,-8, NOTE_E5,-8, NOTE_G5,-8, NOTE_A5,4, NOTE_F5,8, NOTE_G5,8,
  REST,8, NOTE_E5,4, NOTE_C5,8, NOTE_D5,8, NOTE_B4,-4,

  NOTE_C5,-4, NOTE_G4,8, REST,4, NOTE_E4,-4, // repeats from 19
  NOTE_A4,4, NOTE_B4,4, NOTE_AS4,8, NOTE_A4,4,
  NOTE_G4,-8, NOTE_E5,-8, NOTE_G5,-8, NOTE_A5,4, NOTE_F5,8, NOTE_G5,8,
  REST,8, NOTE_E5,4, NOTE_C5,8, NOTE_D5,8, NOTE_B4,-4,

  NOTE_E5,8, NOTE_C5,4, NOTE_G4,8, REST,4, NOTE_GS4,4,//23
  NOTE_A4,8, NOTE_F5,4, NOTE_F5,8, NOTE_A4,2,
  NOTE_D5,-8, NOTE_A5,-8, NOTE_A5,-8, NOTE_A5,-8, NOTE_G5,-8, NOTE_F5,-8,
  
  NOTE_E5,8, NOTE_C5,4, NOTE_A4,8, NOTE_G4,2, //26
  NOTE_E5,8, NOTE_C5,4, NOTE_G4,8, REST,4, NOTE_GS4,4,
  NOTE_A4,8, NOTE_F5,4, NOTE_F5,8, NOTE_A4,2,
  NOTE_B4,8, NOTE_F5,4, NOTE_F5,8, NOTE_F5,-8, NOTE_E5,-8, NOTE_D5,-8,
  NOTE_C5,8, NOTE_E4,4, NOTE_E4,8, NOTE_C4,2,

  NOTE_E5,8, NOTE_C5,4, NOTE_G4,8, REST,4, NOTE_GS4,4,//repeats from 23
  NOTE_A4,8, NOTE_F5,4, NOTE_F5,8, NOTE_A4,2,
  NOTE_D5,-8, NOTE_A5,-8, NOTE_A5,-8, NOTE_A5,-8, NOTE_G5,-8, NOTE_F5,-8,
  
  NOTE_E5,8, NOTE_C5,4, NOTE_A4,8, NOTE_G4,2, //26
  NOTE_E5,8, NOTE_C5,4, NOTE_G4,8, REST,4, NOTE_GS4,4,
  NOTE_A4,8, NOTE_F5,4, NOTE_F5,8, NOTE_A4,2,
  NOTE_B4,8, NOTE_F5,4, NOTE_F5,8, NOTE_F5,-8, NOTE_E5,-8, NOTE_D5,-8,
  NOTE_C5,8, NOTE_E4,4, NOTE_E4,8, NOTE_C4,2,
  NOTE_C5,8, NOTE_C5,4, NOTE_C5,8, REST,8, NOTE_C5,8, NOTE_D5,8, NOTE_E5,8,
  REST,1,

  NOTE_C5,8, NOTE_C5,4, NOTE_C5,8, REST,8, NOTE_C5,8, NOTE_D5,4, //33
  NOTE_E5,8, NOTE_C5,4, NOTE_A4,8, NOTE_G4,2,
  NOTE_E5,8, NOTE_E5,8, REST,8, NOTE_E5,8, REST,8, NOTE_C5,8, NOTE_E5,4,
  NOTE_G5,4, REST,4, NOTE_G4,4, REST,4, 
  NOTE_E5,8, NOTE_C5,4, NOTE_G4,8, REST,4, NOTE_GS4,4,
  NOTE_A4,8, NOTE_F5,4, NOTE_F5,8, NOTE_A4,2,
  NOTE_D5,-8, NOTE_A5,-8, NOTE_A5,-8, NOTE_A5,-8, NOTE_G5,-8, NOTE_F5,-8,
  
  NOTE_E5,8, NOTE_C5,4, NOTE_A4,8, NOTE_G4,2, //40
  NOTE_E5,8, NOTE_C5,4, NOTE_G4,8, REST,4, NOTE_GS4,4,
  NOTE_A4,8, NOTE_F5,4, NOTE_F5,8, NOTE_A4,2,
  NOTE_B4,8, NOTE_F5,4, NOTE_F5,8, NOTE_F5,-8, NOTE_E5,-8, NOTE_D5,-8,
  NOTE_C5,8, NOTE_E4,4, NOTE_E4,8, NOTE_C4,2,
  
  //game over sound
  NOTE_C5,-4, NOTE_G4,-4, NOTE_E4,4, //45
  NOTE_A4,-8, NOTE_B4,-8, NOTE_A4,-8, NOTE_GS4,-8, NOTE_AS4,-8, NOTE_GS4,-8,
  NOTE_G4,8, NOTE_D4,8, NOTE_E4,-2,

  //Zelda Theme

  NOTE_AS4,-2,  NOTE_F4,8,  NOTE_F4,8,  NOTE_AS4,8,//1
  NOTE_GS4,16,  NOTE_FS4,16,  NOTE_GS4,-2,
  NOTE_AS4,-2,  NOTE_FS4,8,  NOTE_FS4,8,  NOTE_AS4,8,
  NOTE_A4,16,  NOTE_G4,16,  NOTE_A4,-2,
  REST,1, 

  NOTE_AS4,4,  NOTE_F4,-4,  NOTE_AS4,8,  NOTE_AS4,16,  NOTE_C5,16, NOTE_D5,16, NOTE_DS5,16,//7
  NOTE_F5,2,  NOTE_F5,8,  NOTE_F5,8,  NOTE_F5,8,  NOTE_FS5,16, NOTE_GS5,16,
  NOTE_AS5,-2,  NOTE_AS5,8,  NOTE_AS5,8,  NOTE_GS5,8,  NOTE_FS5,16,
  NOTE_GS5,-8,  NOTE_FS5,16,  NOTE_F5,2,  NOTE_F5,4, 

  NOTE_DS5,-8, NOTE_F5,16, NOTE_FS5,2, NOTE_F5,8, NOTE_DS5,8, //11
  NOTE_CS5,-8, NOTE_DS5,16, NOTE_F5,2, NOTE_DS5,8, NOTE_CS5,8,
  NOTE_C5,-8, NOTE_D5,16, NOTE_E5,2, NOTE_G5,8, 
  NOTE_F5,16, NOTE_F4,16, NOTE_F4,16, NOTE_F4,16,NOTE_F4,16,NOTE_F4,16,NOTE_F4,16,NOTE_F4,16,NOTE_F4,8, NOTE_F4,16,NOTE_F4,8,

  NOTE_AS4,4,  NOTE_F4,-4,  NOTE_AS4,8,  NOTE_AS4,16,  NOTE_C5,16, NOTE_D5,16, NOTE_DS5,16,//15
  NOTE_F5,2,  NOTE_F5,8,  NOTE_F5,8,  NOTE_F5,8,  NOTE_FS5,16, NOTE_GS5,16,
  NOTE_AS5,-2, NOTE_CS6,4,
  NOTE_C6,4, NOTE_A5,2, NOTE_F5,4,
  NOTE_FS5,-2, NOTE_AS5,4,
  NOTE_A5,4, NOTE_F5,2, NOTE_F5,4,

  NOTE_FS5,-2, NOTE_AS5,4,
  NOTE_A5,4, NOTE_F5,2, NOTE_D5,4,
  NOTE_DS5,-2, NOTE_FS5,4,
  NOTE_F5,4, NOTE_CS5,2, NOTE_AS4,4,
  NOTE_C5,-8, NOTE_D5,16, NOTE_E5,2, NOTE_G5,8, 
  NOTE_F5,16, NOTE_F4,16, NOTE_F4,16, NOTE_F4,16,NOTE_F4,16,NOTE_F4,16,NOTE_F4,16,NOTE_F4,16,NOTE_F4,8, NOTE_F4,16,NOTE_F4,8,
  
  //Take on me

  NOTE_FS5,8, NOTE_FS5,8,NOTE_D5,8, NOTE_B4,8, REST,8, NOTE_B4,8, REST,8, NOTE_E5,8, 
  REST,8, NOTE_E5,8, REST,8, NOTE_E5,8, NOTE_GS5,8, NOTE_GS5,8, NOTE_A5,8, NOTE_B5,8,
  NOTE_A5,8, NOTE_A5,8, NOTE_A5,8, NOTE_E5,8, REST,8, NOTE_D5,8, REST,8, NOTE_FS5,8, 
  REST,8, NOTE_FS5,8, REST,8, NOTE_FS5,8, NOTE_E5,8, NOTE_E5,8, NOTE_FS5,8, NOTE_E5,8,
  NOTE_FS5,8, NOTE_FS5,8,NOTE_D5,8, NOTE_B4,8, REST,8, NOTE_B4,8, REST,8, NOTE_E5,8, 
  
  REST,8, NOTE_E5,8, REST,8, NOTE_E5,8, NOTE_GS5,8, NOTE_GS5,8, NOTE_A5,8, NOTE_B5,8,
  NOTE_A5,8, NOTE_A5,8, NOTE_A5,8, NOTE_E5,8, REST,8, NOTE_D5,8, REST,8, NOTE_FS5,8, 
  REST,8, NOTE_FS5,8, REST,8, NOTE_FS5,8, NOTE_E5,8, NOTE_E5,8, NOTE_FS5,8, NOTE_E5,8,
  NOTE_FS5,8, NOTE_FS5,8,NOTE_D5,8, NOTE_B4,8, REST,8, NOTE_B4,8, REST,8, NOTE_E5,8, 
  REST,8, NOTE_E5,8, REST,8, NOTE_E5,8, NOTE_GS5,8, NOTE_GS5,8, NOTE_A5,8, NOTE_B5,8,
  
  NOTE_A5,8, NOTE_A5,8, NOTE_A5,8, NOTE_E5,8, REST,8, NOTE_D5,8, REST,8, NOTE_FS5,8, 
  REST,8, NOTE_FS5,8, REST,8, NOTE_FS5,8, NOTE_E5,8, NOTE_E5,8, NOTE_FS5,8, NOTE_E5,8,

  // Greenhill Sonic the Hedgehog

  REST,2, NOTE_D5,8, NOTE_B4,4, NOTE_D5,8, //1
  NOTE_CS5,4, NOTE_D5,8, NOTE_CS5,4, NOTE_A4,2, 
  REST,8, NOTE_A4,8, NOTE_FS5,8, NOTE_E5,4, NOTE_D5,8,
  NOTE_CS5,4, NOTE_D5,8, NOTE_CS5,4, NOTE_A4,2, 
  REST,4, NOTE_D5,8, NOTE_B4,4, NOTE_D5,8,
  NOTE_CS5,4, NOTE_D5,8, NOTE_CS5,4, NOTE_A4,2, 

  REST,8, NOTE_B4,8, NOTE_B4,8, NOTE_G4,4, NOTE_B4,8, //7
  NOTE_A4,4, NOTE_B4,8, NOTE_A4,4, NOTE_D4,2,
  REST,4, NOTE_D5,8, NOTE_B4,4, NOTE_D5,8,
  NOTE_CS5,4, NOTE_D5,8, NOTE_CS5,4, NOTE_A4,2, 
  REST,8, NOTE_A4,8, NOTE_FS5,8, NOTE_E5,4, NOTE_D5,8,
  NOTE_CS5,4, NOTE_D5,8, NOTE_CS5,4, NOTE_A4,2, 

  REST,4, NOTE_D5,8, NOTE_B4,4, NOTE_D5,8, //13
  NOTE_CS5,4, NOTE_D5,8, NOTE_CS5,4, NOTE_A4,2, 
  REST,8, NOTE_B4,8, NOTE_B4,8, NOTE_G4,4, NOTE_B4,8,
  NOTE_A4,4, NOTE_B4,8, NOTE_A4,4, NOTE_D4,8, NOTE_D4,8, NOTE_FS4,8,
  NOTE_E4,-1,
  REST,8, NOTE_D4,8, NOTE_E4,8, NOTE_FS4,-1,

  REST,8, NOTE_D4,8, NOTE_D4,8, NOTE_FS4,8, NOTE_F4,-1, //20
  REST,8, NOTE_D4,8, NOTE_F4,8, NOTE_E4,-1, //end 1

  //repeats from 1

  REST,2, NOTE_D5,8, NOTE_B4,4, NOTE_D5,8, //1
  NOTE_CS5,4, NOTE_D5,8, NOTE_CS5,4, NOTE_A4,2, 
  REST,8, NOTE_A4,8, NOTE_FS5,8, NOTE_E5,4, NOTE_D5,8,
  NOTE_CS5,4, NOTE_D5,8, NOTE_CS5,4, NOTE_A4,2, 
  REST,4, NOTE_D5,8, NOTE_B4,4, NOTE_D5,8,
  NOTE_CS5,4, NOTE_D5,8, NOTE_CS5,4, NOTE_A4,2, 

  REST,8, NOTE_B4,8, NOTE_B4,8, NOTE_G4,4, NOTE_B4,8, //7
  NOTE_A4,4, NOTE_B4,8, NOTE_A4,4, NOTE_D4,2,
  REST,4, NOTE_D5,8, NOTE_B4,4, NOTE_D5,8,
  NOTE_CS5,4, NOTE_D5,8, NOTE_CS5,4, NOTE_A4,2, 
  REST,8, NOTE_A4,8, NOTE_FS5,8, NOTE_E5,4, NOTE_D5,8,
  NOTE_CS5,4, NOTE_D5,8, NOTE_CS5,4, NOTE_A4,2, 

  REST,4, NOTE_D5,8, NOTE_B4,4, NOTE_D5,8, //13
  NOTE_CS5,4, NOTE_D5,8, NOTE_CS5,4, NOTE_A4,2, 
  REST,8, NOTE_B4,8, NOTE_B4,8, NOTE_G4,4, NOTE_B4,8,
  NOTE_A4,4, NOTE_B4,8, NOTE_A4,4, NOTE_D4,8, NOTE_D4,8, NOTE_FS4,8,
  NOTE_E4,-1,
  REST,8, NOTE_D4,8, NOTE_E4,8, NOTE_FS4,-1,

  REST,8, NOTE_D4,8, NOTE_D4,8, NOTE_FS4,8, NOTE_F4,-1, //20
  REST,8, NOTE_D4,8, NOTE_F4,8, NOTE_E4,8, //end 2
  NOTE_E4,-2, NOTE_A4,8, NOTE_CS5,8, 
  NOTE_FS5,8, NOTE_E5,4, NOTE_D5,8, NOTE_A5,-4,

  //Pacman

  NOTE_B4, 16, NOTE_B5, 16, NOTE_FS5, 16, NOTE_DS5, 16, //1
  NOTE_B5, 32, NOTE_FS5, -16, NOTE_DS5, 8, NOTE_C5, 16,
  NOTE_C6, 16, NOTE_G6, 16, NOTE_E6, 16, NOTE_C6, 32, NOTE_G6, -16, NOTE_E6, 8,

  NOTE_B4, 16,  NOTE_B5, 16,  NOTE_FS5, 16,   NOTE_DS5, 16,  NOTE_B5, 32,  //2
  NOTE_FS5, -16, NOTE_DS5, 8,  NOTE_DS5, 32, NOTE_E5, 32,  NOTE_F5, 32,
  NOTE_F5, 32,  NOTE_FS5, 32,  NOTE_G5, 32,  NOTE_G5, 32, NOTE_GS5, 32,  NOTE_A5, 16, NOTE_B5, 8,

  //Never gonna give you up

  NOTE_D5,-4, NOTE_E5,-4, NOTE_A4,4, //1
  NOTE_E5,-4, NOTE_FS5,-4, NOTE_A5,16, NOTE_G5,16, NOTE_FS5,8,
  NOTE_D5,-4, NOTE_E5,-4, NOTE_A4,2,
  NOTE_A4,16, NOTE_A4,16, NOTE_B4,16, NOTE_D5,8, NOTE_D5,16,
  NOTE_D5,-4, NOTE_E5,-4, NOTE_A4,4, //repeat from 1
  NOTE_E5,-4, NOTE_FS5,-4, NOTE_A5,16, NOTE_G5,16, NOTE_FS5,8,
  NOTE_D5,-4, NOTE_E5,-4, NOTE_A4,2,
  NOTE_A4,16, NOTE_A4,16, NOTE_B4,16, NOTE_D5,8, NOTE_D5,16,
  REST,4, NOTE_B4,8, NOTE_CS5,8, NOTE_D5,8, NOTE_D5,8, NOTE_E5,8, NOTE_CS5,-8,
  NOTE_B4,16, NOTE_A4,2, REST,4, 

  REST,8, NOTE_B4,8, NOTE_B4,8, NOTE_CS5,8, NOTE_D5,8, NOTE_B4,4, NOTE_A4,8, //7
  NOTE_A5,8, REST,8, NOTE_A5,8, NOTE_E5,-4, REST,4, 
  NOTE_B4,8, NOTE_B4,8, NOTE_CS5,8, NOTE_D5,8, NOTE_B4,8, NOTE_D5,8, NOTE_E5,8, REST,8,
  REST,8, NOTE_CS5,8, NOTE_B4,8, NOTE_A4,-4, REST,4,
  REST,8, NOTE_B4,8, NOTE_B4,8, NOTE_CS5,8, NOTE_D5,8, NOTE_B4,8, NOTE_A4,4,
  NOTE_E5,8, NOTE_E5,8, NOTE_E5,8, NOTE_FS5,8, NOTE_E5,4, REST,4,
   
  NOTE_D5,2, NOTE_E5,8, NOTE_FS5,8, NOTE_D5,8, //13
  NOTE_E5,8, NOTE_E5,8, NOTE_E5,8, NOTE_FS5,8, NOTE_E5,4, NOTE_A4,4,
  REST,2, NOTE_B4,8, NOTE_CS5,8, NOTE_D5,8, NOTE_B4,8,
  REST,8, NOTE_E5,8, NOTE_FS5,8, NOTE_E5,-4, NOTE_A4,16, NOTE_B4,16, NOTE_D5,16, NOTE_B4,16,
  NOTE_FS5,-8, NOTE_FS5,-8, NOTE_E5,-4, NOTE_A4,16, NOTE_B4,16, NOTE_D5,16, NOTE_B4,16,

  NOTE_E5,-8, NOTE_E5,-8, NOTE_D5,-8, NOTE_CS5,16, NOTE_B4,-8, NOTE_A4,16, NOTE_B4,16, NOTE_D5,16, NOTE_B4,16, //18
  NOTE_D5,4, NOTE_E5,8, NOTE_CS5,-8, NOTE_B4,16, NOTE_A4,8, NOTE_A4,8, NOTE_A4,8, 
  NOTE_E5,4, NOTE_D5,2, NOTE_A4,16, NOTE_B4,16, NOTE_D5,16, NOTE_B4,16,
  NOTE_FS5,-8, NOTE_FS5,-8, NOTE_E5,-4, NOTE_A4,16, NOTE_B4,16, NOTE_D5,16, NOTE_B4,16,
  NOTE_A5,4, NOTE_CS5,8, NOTE_D5,-8, NOTE_CS5,16, NOTE_B4,8, NOTE_A4,16, NOTE_B4,16, NOTE_D5,16, NOTE_B4,16,

  NOTE_D5,4, NOTE_E5,8, NOTE_CS5,-8, NOTE_B4,16, NOTE_A4,4, NOTE_A4,8,  //23
  NOTE_E5,4, NOTE_D5,2, REST,4,
  REST,8, NOTE_B4,8, NOTE_D5,8, NOTE_B4,8, NOTE_D5,8, NOTE_E5,4, REST,8,
  REST,8, NOTE_CS5,8, NOTE_B4,8, NOTE_A4,-4, REST,4,
  REST,8, NOTE_B4,8, NOTE_B4,8, NOTE_CS5,8, NOTE_D5,8, NOTE_B4,8, NOTE_A4,4,
  REST,8, NOTE_A5,8, NOTE_A5,8, NOTE_E5,8, NOTE_FS5,8, NOTE_E5,8, NOTE_D5,8,
  
  REST,8, NOTE_A4,8, NOTE_B4,8, NOTE_CS5,8, NOTE_D5,8, NOTE_B4,8, //29
  REST,8, NOTE_CS5,8, NOTE_B4,8, NOTE_A4,-4, REST,4,
  NOTE_B4,8, NOTE_B4,8, NOTE_CS5,8, NOTE_D5,8, NOTE_B4,8, NOTE_A4,4, REST,8,
  REST,8, NOTE_E5,8, NOTE_E5,8, NOTE_FS5,4, NOTE_E5,-4, 
  NOTE_D5,2, NOTE_D5,8, NOTE_E5,8, NOTE_FS5,8, NOTE_E5,4, 
  NOTE_E5,8, NOTE_E5,8, NOTE_FS5,8, NOTE_E5,8, NOTE_A4,8, NOTE_A4,4,

  REST,-4, NOTE_A4,8, NOTE_B4,8, NOTE_CS5,8, NOTE_D5,8, NOTE_B4,8, //35
  REST,8, NOTE_E5,8, NOTE_FS5,8, NOTE_E5,-4, NOTE_A4,16, NOTE_B4,16, NOTE_D5,16, NOTE_B4,16,
  NOTE_FS5,-8, NOTE_FS5,-8, NOTE_E5,-4, NOTE_A4,16, NOTE_B4,16, NOTE_D5,16, NOTE_B4,16,
  NOTE_E5,-8, NOTE_E5,-8, NOTE_D5,-8, NOTE_CS5,16, NOTE_B4,8, NOTE_A4,16, NOTE_B4,16, NOTE_D5,16, NOTE_B4,16,
  NOTE_D5,4, NOTE_E5,8, NOTE_CS5,-8, NOTE_B4,16, NOTE_A4,4, NOTE_A4,8, 

   NOTE_E5,4, NOTE_D5,2, NOTE_A4,16, NOTE_B4,16, NOTE_D5,16, NOTE_B4,16, //40
  NOTE_FS5,-8, NOTE_FS5,-8, NOTE_E5,-4, NOTE_A4,16, NOTE_B4,16, NOTE_D5,16, NOTE_B4,16,
  NOTE_A5,4, NOTE_CS5,8, NOTE_D5,-8, NOTE_CS5,16, NOTE_B4,8, NOTE_A4,16, NOTE_B4,16, NOTE_D5,16, NOTE_B4,16,
  NOTE_D5,4, NOTE_E5,8, NOTE_CS5,-8, NOTE_B4,16, NOTE_A4,4, NOTE_A4,8,  
  NOTE_E5,4, NOTE_D5,2, NOTE_A4,16, NOTE_B4,16, NOTE_D5,16, NOTE_B4,16,
   
  NOTE_FS5,-8, NOTE_FS5,-8, NOTE_E5,-4, NOTE_A4,16, NOTE_B4,16, NOTE_D5,16, NOTE_B4,16, //45
  NOTE_A5,4, NOTE_CS5,8, NOTE_D5,-8, NOTE_CS5,16, NOTE_B4,8, NOTE_A4,16, NOTE_B4,16, NOTE_D5,16, NOTE_B4,16,
  NOTE_D5,4, NOTE_E5,8, NOTE_CS5,-8, NOTE_B4,16, NOTE_A4,4, NOTE_A4,8,  
  NOTE_E5,4, NOTE_D5,2, NOTE_A4,16, NOTE_B4,16, NOTE_D5,16, NOTE_B4,16,
  NOTE_FS5,-8, NOTE_FS5,-8, NOTE_E5,-4, NOTE_A4,16, NOTE_B4,16, NOTE_D5,16, NOTE_B4,16, //45
  
  NOTE_A5,4, NOTE_CS5,8, NOTE_D5,-8, NOTE_CS5,16, NOTE_B4,8, NOTE_A4,16, NOTE_B4,16, NOTE_D5,16, NOTE_B4,16,
  NOTE_D5,4, NOTE_E5,8, NOTE_CS5,-8, NOTE_B4,16, NOTE_A4,4, NOTE_A4,8, 

  NOTE_E5,4, NOTE_D5,2, REST,4,

  //Pink Panther

  REST,2, REST,4, REST,8, NOTE_DS4,8, 
  NOTE_E4,-4, REST,8, NOTE_FS4,8, NOTE_G4,-4, REST,8, NOTE_DS4,8,
  NOTE_E4,-8, NOTE_FS4,8,  NOTE_G4,-8, NOTE_C5,8, NOTE_B4,-8, NOTE_E4,8, NOTE_G4,-8, NOTE_B4,8,   
  NOTE_AS4,2, NOTE_A4,-16, NOTE_G4,-16, NOTE_E4,-16, NOTE_D4,-16, 
  NOTE_E4,2, REST,4, REST,8, NOTE_DS4,4,

  NOTE_E4,-4, REST,8, NOTE_FS4,8, NOTE_G4,-4, REST,8, NOTE_DS4,8,
  NOTE_E4,-8, NOTE_FS4,8,  NOTE_G4,-8, NOTE_C5,8, NOTE_B4,-8, NOTE_G4,8, NOTE_B4,-8, NOTE_E5,8,
  NOTE_DS5,1,   
  NOTE_D5,2, REST,4, REST,8, NOTE_DS4,8, 
  NOTE_E4,-4, REST,8, NOTE_FS4,8, NOTE_G4,-4, REST,8, NOTE_DS4,8,
  NOTE_E4,-8, NOTE_FS4,8,  NOTE_G4,-8, NOTE_C5,8, NOTE_B4,-8, NOTE_E4,8, NOTE_G4,-8, NOTE_B4,8,   
  
  NOTE_AS4,2, NOTE_A4,-16, NOTE_G4,-16, NOTE_E4,-16, NOTE_D4,-16, 
  NOTE_E4,-4, REST,4,
  REST,4, NOTE_E5,-8, NOTE_D5,8, NOTE_B4,-8, NOTE_A4,8, NOTE_G4,-8, NOTE_E4,-8,
  NOTE_AS4,16, NOTE_A4,-8, NOTE_AS4,16, NOTE_A4,-8, NOTE_AS4,16, NOTE_A4,-8, NOTE_AS4,16, NOTE_A4,-8,   
  NOTE_G4,-16, NOTE_E4,-16, NOTE_D4,-16, NOTE_E4,16, NOTE_E4,16, NOTE_E4,2,

  // Ode to joy

  NOTE_E4,4,  NOTE_E4,4,  NOTE_F4,4,  NOTE_G4,4,//1
  NOTE_G4,4,  NOTE_F4,4,  NOTE_E4,4,  NOTE_D4,4,
  NOTE_C4,4,  NOTE_C4,4,  NOTE_D4,4,  NOTE_E4,4,
  NOTE_E4,-4, NOTE_D4,8,  NOTE_D4,2,

  NOTE_E4,4,  NOTE_E4,4,  NOTE_F4,4,  NOTE_G4,4,//4
  NOTE_G4,4,  NOTE_F4,4,  NOTE_E4,4,  NOTE_D4,4,
  NOTE_C4,4,  NOTE_C4,4,  NOTE_D4,4,  NOTE_E4,4,
  NOTE_D4,-4,  NOTE_C4,8,  NOTE_C4,2,

  NOTE_D4,4,  NOTE_D4,4,  NOTE_E4,4,  NOTE_C4,4,//8
  NOTE_D4,4,  NOTE_E4,8,  NOTE_F4,8,  NOTE_E4,4, NOTE_C4,4,
  NOTE_D4,4,  NOTE_E4,8,  NOTE_F4,8,  NOTE_E4,4, NOTE_D4,4,
  NOTE_C4,4,  NOTE_D4,4,  NOTE_G3,2,

  NOTE_E4,4,  NOTE_E4,4,  NOTE_F4,4,  NOTE_G4,4,//12
  NOTE_G4,4,  NOTE_F4,4,  NOTE_E4,4,  NOTE_D4,4,
  NOTE_C4,4,  NOTE_C4,4,  NOTE_D4,4,  NOTE_E4,4,
  NOTE_D4,-4,  NOTE_C4,8,  NOTE_C4,2,

  //Keyboard-Cat

  REST,1,
    REST,1,
    NOTE_C4,4, NOTE_E4,4, NOTE_G4,4, NOTE_E4,4, 
    NOTE_C4,4, NOTE_E4,8, NOTE_G4,-4, NOTE_E4,4,
    NOTE_A3,4, NOTE_C4,4, NOTE_E4,4, NOTE_C4,4,
    NOTE_A3,4, NOTE_C4,8, NOTE_E4,-4, NOTE_C4,4,
    NOTE_G3,4, NOTE_B3,4, NOTE_D4,4, NOTE_B3,4,
    NOTE_G3,4, NOTE_B3,8, NOTE_D4,-4, NOTE_B3,4,

    NOTE_G3,4, NOTE_G3,8, NOTE_G3,-4, NOTE_G3,8, NOTE_G3,4, 
    NOTE_G3,4, NOTE_G3,4, NOTE_G3,8, NOTE_G3,4,
    NOTE_C4,4, NOTE_E4,4, NOTE_G4,4, NOTE_E4,4, 
    NOTE_C4,4, NOTE_E4,8, NOTE_G4,-4, NOTE_E4,4,
    NOTE_A3,4, NOTE_C4,4, NOTE_E4,4, NOTE_C4,4,
    NOTE_A3,4, NOTE_C4,8, NOTE_E4,-4, NOTE_C4,4,
    NOTE_G3,4, NOTE_B3,4, NOTE_D4,4, NOTE_B3,4,
    NOTE_G3,4, NOTE_B3,8, NOTE_D4,-4, NOTE_B3,4,

    NOTE_G3,-1,

    //Badinerie Bach

  NOTE_B5,-8, NOTE_D6,16, NOTE_B5,16,
  NOTE_FS5,-8, NOTE_B5,16, NOTE_FS5,16, NOTE_D5,-8, NOTE_FS5,16, NOTE_D5,16,
  NOTE_B4,4,NOTE_F4,16, NOTE_B4,16, NOTE_D5,16, NOTE_B4,16,
  NOTE_CS5,16, NOTE_B4,16, NOTE_CS5,16, NOTE_B4,16, NOTE_AS4,16, NOTE_CS5,16, NOTE_E5,16, NOTE_CS5,16,
  NOTE_D5,8, NOTE_B4,8, NOTE_B5,-8, NOTE_D6,16, NOTE_B5,16,
  NOTE_FS5,-8, NOTE_B5,16, NOTE_FS5,16, NOTE_D5,-8, NOTE_FS5,16, NOTE_D5,16,
  //6
  NOTE_B4,4, NOTE_D5,16, NOTE_CS5,-16, NOTE_D5,-8,
  NOTE_D5,16, NOTE_CS5,-16, NOTE_D5,-8, NOTE_B5,-8, NOTE_D5,-8,
  NOTE_D5,8, NOTE_CS5,-8, NOTE_FS5,-16, /*MI#*/ NOTE_F5,16, NOTE_FS5,-8,
  NOTE_FS5,-16, /* MI#??*/NOTE_F5,16, NOTE_FS5,-8, NOTE_D6,-8, NOTE_FS5,-8,
  NOTE_FS5,8, /*MI#*/ NOTE_F5,8, NOTE_CS5,16, NOTE_FS5,16, NOTE_A5,16, NOTE_FS5,16,
  NOTE_GS5,16, NOTE_FS5,16, NOTE_GS5,16, NOTE_FS5,16, NOTE_F5,16, NOTE_G5,16, NOTE_B5,16, NOTE_G5,16,
  //12
  NOTE_A5,16, NOTE_GS5,16, NOTE_A5,16, NOTE_G5,16, NOTE_F5,16, NOTE_A5,16, NOTE_FS5,16, NOTE_F5,16,
  NOTE_FS5,16, NOTE_B5,16,  NOTE_FS5,16, NOTE_F5,16, NOTE_FS5,16, NOTE_C6,16, NOTE_FS5,16, NOTE_E5,16,
  NOTE_FS5,16, NOTE_D6,16, NOTE_FS5,16, NOTE_F5,16, NOTE_FS5,16, NOTE_D6,16, NOTE_C6,16, NOTE_B5,16,
  NOTE_C6,16, NOTE_A5,16, NOTE_GS5,16, NOTE_FS5,16, NOTE_A5,8, NOTE_G5,8,
  NOTE_FS5,4, REST,4, NOTE_FS5,-8, NOTE_A5,16, NOTE_FS5,16,
  //18
  NOTE_CS5,-4, NOTE_FS5,16, NOTE_CS5,16, NOTE_A4,-8, NOTE_CS5,16, NOTE_A4,16,
  NOTE_F4,4,   NOTE_C5,8, NOTE_B4,8,
  NOTE_E5,8, NOTE_DS5,16, NOTE_FS5,16, NOTE_A5,8, NOTE_GS5,16, NOTE_FS5,16,
  NOTE_GS5,8, NOTE_D5,8, NOTE_GS5,-8, NOTE_B5,16, NOTE_GS5,8,
  NOTE_E5,-8, NOTE_GS5,16, NOTE_E5,16, NOTE_CS5,-8, NOTE_E5,16, NOTE_CS5,16,
  NOTE_A4,4, NOTE_A4,16, NOTE_D5,16, NOTE_FS5,16, NOTE_D5,16,
  //24
  NOTE_E5,16, NOTE_D5,16, NOTE_E5,16, NOTE_D5,16, NOTE_CS5,16, NOTE_E5,16, NOTE_G5,16, NOTE_E5,16,
  NOTE_FS5,16, NOTE_E5,16, NOTE_FS5,16, NOTE_E5,16, NOTE_D5,16, NOTE_FS5,16, NOTE_D5,16, NOTE_CS5,16,
  NOTE_D5,16, NOTE_G5,16, NOTE_D5,16, NOTE_CS5,16, NOTE_D5,16, NOTE_A5,16, NOTE_D5,16, NOTE_CS5,16,
  NOTE_D5,16, NOTE_B5,16, NOTE_D5,16, NOTE_CS5,16, NOTE_D5,16, NOTE_B5,16, NOTE_A5,16, NOTE_G5,16,
  NOTE_A5,16, NOTE_FS5,16, NOTE_E5,16, NOTE_D5,16, NOTE_FS5,8, NOTE_E5,16,
  //29
  NOTE_D5,4, NOTE_FS5,16, NOTE_E5,16, NOTE_FS5,-8,
  NOTE_FS5,16, NOTE_E5,16, NOTE_FS5,-8, NOTE_D6,-8, NOTE_FS5,-8,
  NOTE_FS5,8, NOTE_E5,8, NOTE_E5,16, NOTE_D5,16, NOTE_E5,-8,
  NOTE_E5,16, NOTE_D5,16, NOTE_E5,-8, NOTE_D6,-8, NOTE_E5,-8,
  NOTE_E5,8, NOTE_D5,8, NOTE_B5,-8, NOTE_D6,16, NOTE_B5,16,
  NOTE_B5,8, NOTE_G5,4, NOTE_G5,4, NOTE_B5,32, NOTE_A5,32, NOTE_G5,32, NOTE_FS5,32,
  //35
  NOTE_E5,4, NOTE_E5,8, NOTE_G5,32, NOTE_FS5,32, NOTE_E5,32, NOTE_D5,32,
  NOTE_C5,16, NOTE_E5,16, NOTE_G5,16, NOTE_E5,16, NOTE_CS5,16, NOTE_B4,16, NOTE_CS5,16, NOTE_A4,16,
  NOTE_AS4,-8, NOTE_A4,-8, NOTE_G4,8, NOTE_F4,8,
  NOTE_A4,8, NOTE_AS4,16, NOTE_CS5,16, NOTE_E5,8, NOTE_D5,16, NOTE_CS5,16,
  //39
  NOTE_D5,8, NOTE_B4,32, NOTE_CS5,32, NOTE_D5,32, NOTE_E5,32, NOTE_FS5,8, NOTE_D5,16, NOTE_FS5,16,
  NOTE_B5,8, NOTE_FS5,8, NOTE_E5,16, NOTE_D5,16, NOTE_CS5,16, NOTE_D5,16,
  NOTE_CS5,8, NOTE_B4,4,

  //Star Trek

  NOTE_D4, -8, NOTE_G4, 16, NOTE_C5, -4, 
  NOTE_B4, 8, NOTE_G4, -16, NOTE_E4, -16, NOTE_A4, -16,
  NOTE_D5, 2, REST, 2, REST, 2, REST, 2, REST, 2,

  //Silent Night

  NOTE_G4,-4, NOTE_A4,8, NOTE_G4,4,
  NOTE_E4,-2, 
  NOTE_G4,-4, NOTE_A4,8, NOTE_G4,4,
  NOTE_E4,-2, 
  NOTE_D5,2, NOTE_D5,4,
  NOTE_B4,-2,
  NOTE_C5,2, NOTE_C5,4,
  NOTE_G4,-2,

  NOTE_A4,2, NOTE_A4,4,
  NOTE_C5,-4, NOTE_B4,8, NOTE_A4,4,
  NOTE_G4,-4, NOTE_A4,8, NOTE_G4,4,
  NOTE_E4,-2, 
  NOTE_A4,2, NOTE_A4,4,
  NOTE_C5,-4, NOTE_B4,8, NOTE_A4,4,
  NOTE_G4,-4, NOTE_A4,8, NOTE_G4,4,
  NOTE_E4,-2, 
  
  NOTE_D5,2, NOTE_D5,4,
  NOTE_F5,-4, NOTE_D5,8, NOTE_B4,4,
  NOTE_C5,-2,
  NOTE_E5,-2,
  NOTE_C5,4, NOTE_G4,4, NOTE_E4,4,
  NOTE_G4,-4, NOTE_F4,8, NOTE_D4,4,
  NOTE_C4,-2,
  NOTE_C4,-1,

  //Happy Birthday

  NOTE_C4, 4, NOTE_C4, 8, 
  NOTE_D4, 4, NOTE_C4, 4, NOTE_F4, 4,
  NOTE_E4, 2, NOTE_C4, 4, NOTE_C4, 8, 
  NOTE_D4, 4, NOTE_C4, 4, NOTE_G4, 4,
  NOTE_F4, 2, NOTE_C4, 4, NOTE_C4, 8,
  
  NOTE_C5, 4, NOTE_A4, 4, NOTE_F4, 4, 
  NOTE_E4, 4, NOTE_D4, 4, NOTE_AS4, 4, NOTE_AS4, 8,
  NOTE_A4, 4, NOTE_F4, 4, NOTE_G4, 4,
  NOTE_F4, 2,

  //Jigglypuff

  NOTE_D5,-4, NOTE_A5,8, NOTE_FS5,8, NOTE_D5,8,
  NOTE_E5,-4, NOTE_FS5,8, NOTE_G5,4,
  NOTE_FS5,-4, NOTE_E5,8, NOTE_FS5,4,
  NOTE_D5,-2,
  NOTE_D5,-4, NOTE_A5,8, NOTE_FS5,8, NOTE_D5,8,
  NOTE_E5,-4, NOTE_FS5,8, NOTE_G5,4,
  NOTE_FS5,-1,
  NOTE_D5,-4, NOTE_A5,8, NOTE_FS5,8, NOTE_D5,8,
  NOTE_E5,-4, NOTE_FS5,8, NOTE_G5,4,
  
  NOTE_FS5,-4, NOTE_E5,8, NOTE_FS5,4,
  NOTE_D5,-2,
  NOTE_D5,-4, NOTE_A5,8, NOTE_FS5,8, NOTE_D5,8,
  NOTE_E5,-4, NOTE_FS5,8, NOTE_G5,4,
  NOTE_FS5,-1,

  //Hedwig's Theme

  REST, 2, NOTE_D4, 4,
  NOTE_G4, -4, NOTE_AS4, 8, NOTE_A4, 4,
  NOTE_G4, 2, NOTE_D5, 4,
  NOTE_C5, -2, 
  NOTE_A4, -2,
  NOTE_G4, -4, NOTE_AS4, 8, NOTE_A4, 4,
  NOTE_F4, 2, NOTE_GS4, 4,
  NOTE_D4, -1, 
  NOTE_D4, 4,

  NOTE_G4, -4, NOTE_AS4, 8, NOTE_A4, 4, //10
  NOTE_G4, 2, NOTE_D5, 4,
  NOTE_F5, 2, NOTE_E5, 4,
  NOTE_DS5, 2, NOTE_B4, 4,
  NOTE_DS5, -4, NOTE_D5, 8, NOTE_CS5, 4,
  NOTE_CS4, 2, NOTE_B4, 4,
  NOTE_G4, -1,
  NOTE_AS4, 4,
     
  NOTE_D5, 2, NOTE_AS4, 4,//18
  NOTE_D5, 2, NOTE_AS4, 4,
  NOTE_DS5, 2, NOTE_D5, 4,
  NOTE_CS5, 2, NOTE_A4, 4,
  NOTE_AS4, -4, NOTE_D5, 8, NOTE_CS5, 4,
  NOTE_CS4, 2, NOTE_D4, 4,
  NOTE_D5, -1, 
  REST,4, NOTE_AS4,4,  

  NOTE_D5, 2, NOTE_AS4, 4,//26
  NOTE_D5, 2, NOTE_AS4, 4,
  NOTE_F5, 2, NOTE_E5, 4,
  NOTE_DS5, 2, NOTE_B4, 4,
  NOTE_DS5, -4, NOTE_D5, 8, NOTE_CS5, 4,
  NOTE_CS4, 2, NOTE_AS4, 4,
  NOTE_G4, -1,

  //Pachelbel - Canon

  NOTE_FS4,2, NOTE_E4,2,
  NOTE_D4,2, NOTE_CS4,2,
  NOTE_B3,2, NOTE_A3,2,
  NOTE_B3,2, NOTE_CS4,2,
  NOTE_FS4,2, NOTE_E4,2,
  NOTE_D4,2, NOTE_CS4,2,
  NOTE_B3,2, NOTE_A3,2,
  NOTE_B3,2, NOTE_CS4,2,
  NOTE_D4,2, NOTE_CS4,2,
  NOTE_B3,2, NOTE_A3,2,
  NOTE_G3,2, NOTE_FS3,2,
  NOTE_G3,2, NOTE_A3,2,

  NOTE_D4,4, NOTE_FS4,8, NOTE_G4,8, NOTE_A4,4, NOTE_FS4,8, NOTE_G4,8, 
  NOTE_A4,4, NOTE_B3,8, NOTE_CS4,8, NOTE_D4,8, NOTE_E4,8, NOTE_FS4,8, NOTE_G4,8, 
  NOTE_FS4,4, NOTE_D4,8, NOTE_E4,8, NOTE_FS4,4, NOTE_FS3,8, NOTE_G3,8,
  NOTE_A3,8, NOTE_G3,8, NOTE_FS3,8, NOTE_G3,8, NOTE_A3,2,
  NOTE_G3,4, NOTE_B3,8, NOTE_A3,8, NOTE_G3,4, NOTE_FS3,8, NOTE_E3,8, 
  NOTE_FS3,4, NOTE_D3,8, NOTE_E3,8, NOTE_FS3,8, NOTE_G3,8, NOTE_A3,8, NOTE_B3,8,

  NOTE_G3,4, NOTE_B3,8, NOTE_A3,8, NOTE_B3,4, NOTE_CS4,8, NOTE_D4,8,
  NOTE_A3,8, NOTE_B3,8, NOTE_CS4,8, NOTE_D4,8, NOTE_E4,8, NOTE_FS4,8, NOTE_G4,8, NOTE_A4,2,
  NOTE_A4,4, NOTE_FS4,8, NOTE_G4,8, NOTE_A4,4,
  NOTE_FS4,8, NOTE_G4,8, NOTE_A4,8, NOTE_A3,8, NOTE_B3,8, NOTE_CS4,8,
  NOTE_D4,8, NOTE_E4,8, NOTE_FS4,8, NOTE_G4,8, NOTE_FS4,4, NOTE_D4,8, NOTE_E4,8,
  NOTE_FS4,8, NOTE_CS4,8, NOTE_A3,8, NOTE_A3,8,

  NOTE_CS4,4, NOTE_B3,4, NOTE_D4,8, NOTE_CS4,8, NOTE_B3,4,
  NOTE_A3,8, NOTE_G3,8, NOTE_A3,4, NOTE_D3,8, NOTE_E3,8, NOTE_FS3,8, NOTE_G3,8,
  NOTE_A3,8, NOTE_B3,4, NOTE_G3,4, NOTE_B3,8, NOTE_A3,8, NOTE_B3,4,
  NOTE_CS4,8, NOTE_D4,8, NOTE_A3,8, NOTE_B3,8, NOTE_CS4,8, NOTE_D4,8, NOTE_E4,8,
  NOTE_FS4,8, NOTE_G4,8, NOTE_A4,2,

  //Bloody Tears from Castlevania II

  //B-flat major Bb Eb
  REST, 4, NOTE_G5, 4,
  NOTE_A5, 4, NOTE_AS5, 4,
  NOTE_A5, 4, NOTE_F5, 4,
  NOTE_A5, 4, NOTE_G5, 4,
  REST, 4, NOTE_G5, 4,
  NOTE_A5, 4, NOTE_AS5, 4,
  NOTE_C6, 4, NOTE_AS5, 4,

  NOTE_A5, 4, NOTE_G5, 4, //8
  REST, 4, NOTE_G5, 4,
  NOTE_A5, 4, NOTE_AS5, 4,
  NOTE_A5, 4, NOTE_F5, 4,
  NOTE_A5, 4, NOTE_G5, 4,
  NOTE_D6, 4, REST, 8, NOTE_C6, 8,
  REST, 4, NOTE_AS5, 4,

  NOTE_A5, 4, NOTE_AS5, 8, NOTE_C6, 8, //15
  NOTE_F6, 8, REST, 8, REST, 4,
  NOTE_G5, 16, NOTE_D5, 16, NOTE_D6, 16, NOTE_D5, 16, NOTE_C6, 16, NOTE_D5, 16, NOTE_AS5, 16, NOTE_D5, 16,
  NOTE_A5, 16, NOTE_D5, 16, NOTE_AS5, 16, NOTE_D5, 16, NOTE_A5, 16, NOTE_D5, 16, NOTE_G5, 16, NOTE_D5, 16,
  NOTE_A5, 16, NOTE_D5, 16, NOTE_AS5, 16, NOTE_D5, 16, NOTE_C6, 16, NOTE_D5, 16, NOTE_AS5, 16, NOTE_D5, 16,

  NOTE_A5, 16, NOTE_D5, 16, NOTE_F5, 16, NOTE_D5, 16, NOTE_A5, 16, NOTE_D5, 16, NOTE_G5, 16, NOTE_D5, 16, //20
  NOTE_G5, 16, NOTE_D5, 16, NOTE_D6, 16, NOTE_D5, 16, NOTE_C6, 16, NOTE_D5, 16, NOTE_AS5, 16, NOTE_D5, 16,
  NOTE_A5, 16, NOTE_D5, 16, NOTE_AS5, 16, NOTE_D5, 16, NOTE_A5, 16, NOTE_D5, 16, NOTE_AS5, 16, NOTE_D5, 16,
  NOTE_A5, 16, NOTE_D5, 16, NOTE_AS5, 16, NOTE_D5, 16, NOTE_C6, 16, NOTE_D5, 16, NOTE_AS5, 16, NOTE_D5, 16,
  NOTE_A5, 16, NOTE_D5, 16, NOTE_F5, 16, NOTE_D5, 16, NOTE_A5, 16, NOTE_D5, 16, NOTE_G5, 16, NOTE_D5, 16,

  NOTE_G5, 16, NOTE_D5, 16, NOTE_D6, 16, NOTE_D5, 16, NOTE_C6, 16, NOTE_D5, 16, NOTE_AS5, 16, NOTE_D5, 16, //25
  NOTE_A5, 16, NOTE_D5, 16, NOTE_AS5, 16, NOTE_D5, 16, NOTE_A5, 16, NOTE_D5, 16, NOTE_G5, 16, NOTE_D5, 16,
  NOTE_A5, 16, NOTE_D5, 16, NOTE_AS5, 16, NOTE_D5, 16, NOTE_C6, 16, NOTE_D5, 16, NOTE_AS5, 16, NOTE_D5, 16,
  NOTE_A5, 16, NOTE_D5, 16, NOTE_F5, 16, NOTE_D5, 16, NOTE_A5, 16, NOTE_D5, 16, NOTE_G5, 16, NOTE_D5, 16,
  NOTE_AS5, 16, NOTE_D5, 16, NOTE_D6, 16, NOTE_D5, 16, NOTE_C6, 16, NOTE_D5, 16, NOTE_AS5, 16, NOTE_D5, 16,

  NOTE_A5, 16, NOTE_D5, 16, NOTE_AS5, 16, NOTE_D5, 16, NOTE_A5, 16, NOTE_D5, 16, NOTE_G5, 16, NOTE_D5, 16,
  NOTE_A5, 16, NOTE_D5, 16, NOTE_AS5, 16, NOTE_D5, 16, NOTE_C6, 16, NOTE_D5, 16, NOTE_AS5, 16, NOTE_D5, 16,
  NOTE_A5, 16, NOTE_D5, 16, NOTE_F5, 16, NOTE_D5, 16, NOTE_A5, 16, NOTE_D5, 16, NOTE_G5, 16, NOTE_D5, 16,
  NOTE_C6, 16, NOTE_C6, 16, NOTE_F6, 16, NOTE_D6, 8, REST, 16, REST, 8,
  REST, 4, NOTE_C6, 16, NOTE_AS5, 16,

  NOTE_C6, -8,  NOTE_F6, -8, NOTE_D6, -4, //35
  NOTE_C6, 8, NOTE_AS5, 8,
  NOTE_C6, 8, NOTE_F6, 16, NOTE_D6, 8, REST, 16, REST, 8,
  REST, 4, NOTE_C6, 8, NOTE_D6, 8,
  NOTE_DS6, -8, NOTE_F6, -8,

  NOTE_D6, -8, REST, 16, NOTE_DS6, 8, REST, 8, //40
  NOTE_C6, 8, NOTE_F6, 16, NOTE_D6, 8, REST, 16, REST, 8,
  REST, 4, NOTE_C6, 8, NOTE_AS5, 8,
  NOTE_C6, -8,  NOTE_F6, -8, NOTE_D6, -4,
  NOTE_C6, 8, NOTE_AS5, 8,

  NOTE_C6, 8, NOTE_F6, 16, NOTE_D6, 8, REST, 16, REST, 8, //45
  REST, 4, NOTE_C6, 8, NOTE_D6, 8,
  NOTE_DS6, -8, NOTE_F6, -8,
  NOTE_D5, 8, NOTE_FS5, 8, NOTE_F5, 8, NOTE_A5, 8,
  NOTE_A5, -8, NOTE_G5, -4,

  NOTE_A5, -8, NOTE_G5, -4, //50
  NOTE_A5, -8, NOTE_G5, -4,
  NOTE_AS5, 8, NOTE_A5, 8, NOTE_G5, 8, NOTE_F5, 8,
  NOTE_A5, -8, NOTE_G5, -8, NOTE_D5, 8,
  NOTE_A5, -8, NOTE_G5, -8, NOTE_D5, 8,
  NOTE_A5, -8, NOTE_G5, -8, NOTE_D5, 8,

  NOTE_AS5, 4, NOTE_C6, 4, NOTE_A5, 4, NOTE_AS5, 4,
  NOTE_G5,16, NOTE_D5,16, NOTE_D6,16, NOTE_D5,16, NOTE_C6,16, NOTE_D5,16, NOTE_AS5,16, NOTE_D5,16,//56 //r
  NOTE_A5,16, NOTE_D5,16, NOTE_AS5,16, NOTE_D5,16, NOTE_A5,16, NOTE_D5,16, NOTE_G5,16, NOTE_D5,16,
  NOTE_A5,16, NOTE_D5,16, NOTE_AS5,16, NOTE_D5,16, NOTE_C6,16, NOTE_D5,16, NOTE_AS5,16, NOTE_D5,16,
  NOTE_A5,16, NOTE_D5,16, NOTE_F5,16, NOTE_D5,16, NOTE_A5,16, NOTE_D5,16, NOTE_G5,16, NOTE_D5,16,

  NOTE_G5,16, NOTE_D5,16, NOTE_D6,16, NOTE_D5,16, NOTE_C6,16, NOTE_D5,16, NOTE_AS5,16, NOTE_D5,16,//61
  NOTE_A5,16, NOTE_D5,16, NOTE_AS5,16, NOTE_D5,16, NOTE_A5,16, NOTE_D5,16, NOTE_AS5,16, NOTE_D5,16,
  NOTE_A5,16, NOTE_D5,16, NOTE_AS5,16, NOTE_D5,16, NOTE_C6,16, NOTE_D5,16, NOTE_AS5,16, NOTE_D5,16,
  NOTE_A5,16, NOTE_D5,16, NOTE_F5,16, NOTE_D5,16, NOTE_A5,16, NOTE_D5,16, NOTE_G5,16, NOTE_D5,16,
  NOTE_G5,16, NOTE_D5,16, NOTE_D6,16, NOTE_D5,16, NOTE_C6,16, NOTE_D5,16, NOTE_AS5,16, NOTE_D5,16,

  NOTE_A5,16, NOTE_D5,16, NOTE_AS5,16, NOTE_D5,16, NOTE_A5,16, NOTE_D5,16, NOTE_G5,16, NOTE_D5,16,//66
  NOTE_A5,16, NOTE_D5,16, NOTE_AS5,16, NOTE_D5,16, NOTE_C6,16, NOTE_D5,16, NOTE_AS5,16, NOTE_D5,16,
  NOTE_A5,16, NOTE_D5,16, NOTE_F5,16, NOTE_D5,16, NOTE_A5,16, NOTE_D5,16, NOTE_G5,16, NOTE_D5,16,
  NOTE_AS5,16, NOTE_D5,16, NOTE_D6,16, NOTE_D5,16, NOTE_C6,16, NOTE_D5,16, NOTE_AS5,16, NOTE_D5,16,
  NOTE_A5,16, NOTE_D5,16, NOTE_AS5,16, NOTE_D5,16, NOTE_A5,16, NOTE_D5,16, NOTE_G5,16, NOTE_D5,16,

  NOTE_A5,16, NOTE_D5,16, NOTE_AS5,16, NOTE_D5,16, NOTE_C6,16, NOTE_D5,16, NOTE_AS5,16, NOTE_D5,16,//71 //
  NOTE_A5, 16, NOTE_D5, 16, NOTE_F5, 16, NOTE_D5, 16, NOTE_A5, 8, NOTE_G5, 32, NOTE_A5, 32, NOTE_AS5, 32, NOTE_C6, 32,
  NOTE_D6, 16, NOTE_G5, 16, NOTE_AS5, 16, NOTE_G5, 16, NOTE_C6, 16, NOTE_G5, 16, NOTE_D6, 16, NOTE_G5, 16,
  NOTE_C6, 16, NOTE_G5, 16, NOTE_A5, 16, NOTE_G5, 16, NOTE_F6, 16, NOTE_G5, 16, NOTE_D6, 16, NOTE_DS5, 16,
  NOTE_D6, 4, REST, 4,

  NOTE_C5, 8, REST, 8, NOTE_A4, -16, NOTE_AS4, -16, NOTE_C5, 16, //76
  NOTE_D6, 16, NOTE_G4, 16, NOTE_AS4, 16, NOTE_G4, 16, NOTE_C5, 16, NOTE_G4, 16, NOTE_D6, 16, NOTE_G4, 16,
  NOTE_C6, 16, NOTE_F4, 16, NOTE_A4, 16, NOTE_F4, 16, NOTE_F5, 16, NOTE_F4, 16, NOTE_D6, 16, NOTE_DS4, 16,
  NOTE_D6, 16, REST, 8, NOTE_E4, 16, NOTE_F4, 16,
  
  //change of key B Major A# C# D# F# G#
  NOTE_GS4, 8, REST, 8, NOTE_AS4, 8, REST, 8,

  NOTE_DS5, 16, NOTE_GS4, 16, NOTE_B4, 16, NOTE_GS4, 16, NOTE_CS5, 16, NOTE_GS4, 16, NOTE_DS5, 16, NOTE_GS4, 16, //81
  NOTE_CS5, 16, NOTE_FS4, 16, NOTE_AS4, 16, NOTE_FS4, 16, NOTE_FS5, 16, NOTE_FS4, 16, NOTE_DS5, 16, NOTE_E5, 16,
  NOTE_D5, 4, REST, 4,
  NOTE_CS5, 8, REST, 8, NOTE_AS4, -16,  NOTE_B4, -16, NOTE_CS5, 16,
  NOTE_DS5, 16, NOTE_GS4, 16, NOTE_B4, 16, NOTE_GS4, 16, NOTE_CS5, 16, NOTE_GS4, 16, NOTE_DS5, 16, NOTE_GS4, 16,
  
  NOTE_CS5, 16, NOTE_FS4, 16, NOTE_AS4, 16, NOTE_FS4, 16, NOTE_FS5, 16, NOTE_FS4, 16, NOTE_DS5, 16, NOTE_E5, 16,
  NOTE_DS5, 4, REST, 8, NOTE_DS5, 16,  NOTE_E5, 16,
  NOTE_FS5, 16, NOTE_CS5, 16, NOTE_E5, 16, NOTE_CS4, 16, NOTE_DS5, 16, NOTE_E5, 16, NOTE_G5, 16, NOTE_AS5, 16,
  NOTE_GS5, 16, NOTE_DS5, 16, NOTE_DS6, 16, NOTE_DS5, 16, NOTE_CS6, 16, NOTE_DS5, 16, NOTE_B5, 16, NOTE_DS5, 16,

  NOTE_AS5, 16, NOTE_DS5, 16, NOTE_B5, 16, NOTE_DS5, 16, NOTE_AS5, 16, NOTE_DS5, 16, NOTE_GS5, 16, NOTE_DS5, 16, //90
  NOTE_AS5, 16, NOTE_DS5, 16, NOTE_B5, 16, NOTE_DS5, 16, NOTE_CS6, 16, NOTE_DS5, 16, NOTE_B5, 16, NOTE_DS5, 16,
  NOTE_AS5, 16, NOTE_DS5, 16, NOTE_FS5, 16, NOTE_DS5, 16, NOTE_AS5, 16, NOTE_DS5, 16, NOTE_GS5, 16, NOTE_DS5, 16,
  NOTE_GS5, 16, NOTE_DS5, 16, NOTE_DS6, 16, NOTE_DS5, 16, NOTE_CS6, 16, NOTE_DS5, 16, NOTE_B5, 16, NOTE_DS5, 16,

  NOTE_AS5, 16, NOTE_DS5, 16, NOTE_B5, 16, NOTE_DS5, 16, NOTE_AS5, 16, NOTE_DS5, 16, NOTE_GS5, 16, NOTE_DS5, 16,//94
  NOTE_AS5, 16, NOTE_DS5, 16, NOTE_B5, 16, NOTE_DS5, 16, NOTE_CS6, 16, NOTE_DS5, 16, NOTE_B5, 16, NOTE_DS5, 16,
  NOTE_AS5, 16, NOTE_DS5, 16, NOTE_FS5, 16, NOTE_DS5, 16, NOTE_AS5, 16, NOTE_DS5, 16, NOTE_GS5, 16, NOTE_DS5, 16,
  NOTE_GS5, 16, NOTE_DS5, 16, NOTE_DS6, 16, NOTE_DS5, 16, NOTE_CS6, 16, NOTE_DS5, 16, NOTE_B5, 16, NOTE_DS5, 16,

  NOTE_AS5, 16, NOTE_DS5, 16, NOTE_B5, 16, NOTE_DS5, 16, NOTE_AS5, 16, NOTE_DS5, 16, NOTE_GS5, 16, NOTE_DS5, 16,//98
  NOTE_AS5, 16, NOTE_DS5, 16, NOTE_B5, 16, NOTE_DS5, 16, NOTE_CS6, 16, NOTE_DS5, 16, NOTE_B5, 16, NOTE_DS5, 16,
  NOTE_AS5, 16, NOTE_DS5, 16, NOTE_FS5, 16, NOTE_DS5, 16, NOTE_AS5, 16, NOTE_DS5, 16, NOTE_GS5, 16, NOTE_DS5, 16,
  NOTE_GS5, 16, NOTE_DS5, 16, NOTE_DS6, 16, NOTE_DS5, 16, NOTE_CS6, 16, NOTE_DS5, 16, NOTE_B5, 16, NOTE_DS5, 16,

  NOTE_AS5, 16, NOTE_DS5, 16, NOTE_B5, 16, NOTE_DS5, 16, NOTE_AS5, 16, NOTE_DS5, 16, NOTE_GS5, 16, NOTE_DS5, 16,//102
  NOTE_AS5, 16, NOTE_DS5, 16, NOTE_B5, 16, NOTE_DS5, 16, NOTE_CS6, 16, NOTE_DS5, 16, NOTE_B5, 16, NOTE_DS5, 16,
  NOTE_AS5, 16, NOTE_DS5, 16, NOTE_FS5, 16, NOTE_DS5, 16, NOTE_AS5, 16, NOTE_DS5, 16, NOTE_GS5, 16, NOTE_DS5, 16,
  
  NOTE_CS6, 8, NOTE_FS6, 16, NOTE_DS6, 8, REST,16, REST,8, //107
  REST,4, NOTE_CS6, 8, NOTE_B5, 8,
  NOTE_CS6,-8, NOTE_FS6, -8, NOTE_DS6, -4,
  NOTE_CS6, 8, NOTE_B5, 8,
  NOTE_CS6, 8, NOTE_FS6, 16, NOTE_DS6, 8, REST,16, REST,8,
  REST,4, NOTE_CS6, 8, NOTE_B5, 8,
  NOTE_E6, -8, NOTE_F6, -8,
  
  NOTE_DS6,-8, REST,16, NOTE_E6,8, REST,16, REST,16, //112
  NOTE_CS6, 8, NOTE_FS6, 16, NOTE_DS6, 8, REST,16, REST,8,
  REST,4, NOTE_CS6, 8, NOTE_B5, 8,
  NOTE_CS6,-8, NOTE_FS6, -8, NOTE_DS6, -4,
  NOTE_CS6, 8, NOTE_B5, 8,
  
  NOTE_CS6, 8, NOTE_FS6, 16, NOTE_DS6, 8, REST,16, REST,8, //117
  REST,4, NOTE_CS5, 8, NOTE_DS5, 8,
  NOTE_E5, -8, NOTE_F5, -8,
  NOTE_DS5, 8, NOTE_G5, 8, NOTE_GS5, 8, NOTE_AS5, 8,
  NOTE_AS5, -8, NOTE_GS5, -8,

  NOTE_AS5, -8, NOTE_GS5, -8,//122
  NOTE_AS5, -8, NOTE_GS5, -8,
  NOTE_B6, 8, NOTE_AS5, 8, NOTE_GS5, 8, NOTE_FS5, 8,
  NOTE_AS5,-8, NOTE_GS6, -8, NOTE_DS5, 8,
  NOTE_AS5,-8, NOTE_GS6, -8, NOTE_DS5, 8,
  NOTE_AS5,-8, NOTE_GS6, -8, NOTE_DS5, 8,

  NOTE_B5,8, NOTE_CS6, 8, NOTE_AS5, 8, NOTE_B5, 8,//128
  NOTE_GS5,8, REST,8, REST, 16,

  //Minuet in G - C. Petzold

  NOTE_D5,4, NOTE_G4,8, NOTE_A4,8, NOTE_B4,8, NOTE_C5,8, //1
  NOTE_D5,4, NOTE_G4,4, NOTE_G4,4,
  NOTE_E5,4, NOTE_C5,8, NOTE_D5,8, NOTE_E5,8, NOTE_FS5,8,
  NOTE_G5,4, NOTE_G4,4, NOTE_G4,4,
  NOTE_C5,4, NOTE_D5,8, NOTE_C5,8, NOTE_B4,8, NOTE_A4,8,
  
  NOTE_B4,4, NOTE_C5,8, NOTE_B4,8, NOTE_A4,8, NOTE_G4,8,//6
  NOTE_FS4,4, NOTE_G4,8, NOTE_A4,8, NOTE_B4,8, NOTE_G4,8,
  NOTE_A4,-2,
  NOTE_D5,4, NOTE_G4,8, NOTE_A4,8, NOTE_B4,8, NOTE_C5,8, 
  NOTE_D5,4, NOTE_G4,4, NOTE_G4,4,
  NOTE_E5,4, NOTE_C5,8, NOTE_D5,8, NOTE_E5,8, NOTE_FS5,8,
  
  NOTE_G5,4, NOTE_G4,4, NOTE_G4,4,
  NOTE_C5,4, NOTE_D5,8, NOTE_C5,8, NOTE_B4,8, NOTE_A4,8, //12
  NOTE_B4,4, NOTE_C5,8, NOTE_B4,8, NOTE_A4,8, NOTE_G4,8,
  NOTE_A4,4, NOTE_B4,8, NOTE_A4,8, NOTE_G4,8, NOTE_FS4,8,
  NOTE_G4,-2,

  //repeats from 1

  NOTE_D5,4, NOTE_G4,8, NOTE_A4,8, NOTE_B4,8, NOTE_C5,8, //1
  NOTE_D5,4, NOTE_G4,4, NOTE_G4,4,
  NOTE_E5,4, NOTE_C5,8, NOTE_D5,8, NOTE_E5,8, NOTE_FS5,8,
  NOTE_G5,4, NOTE_G4,4, NOTE_G4,4,
  NOTE_C5,4, NOTE_D5,8, NOTE_C5,8, NOTE_B4,8, NOTE_A4,8,
  
  NOTE_B4,4, NOTE_C5,8, NOTE_B4,8, NOTE_A4,8, NOTE_G4,8,//6
  NOTE_FS4,4, NOTE_G4,8, NOTE_A4,8, NOTE_B4,8, NOTE_G4,8,
  NOTE_A4,-2,
  NOTE_D5,4, NOTE_G4,8, NOTE_A4,8, NOTE_B4,8, NOTE_C5,8, 
  NOTE_D5,4, NOTE_G4,4, NOTE_G4,4,
  NOTE_E5,4, NOTE_C5,8, NOTE_D5,8, NOTE_E5,8, NOTE_FS5,8,
  
  NOTE_G5,4, NOTE_G4,4, NOTE_G4,4,
  NOTE_C5,4, NOTE_D5,8, NOTE_C5,8, NOTE_B4,8, NOTE_A4,8, //12
  NOTE_B4,4, NOTE_C5,8, NOTE_B4,8, NOTE_A4,8, NOTE_G4,8,
  NOTE_A4,4, NOTE_B4,8, NOTE_A4,8, NOTE_G4,8, NOTE_FS4,8,
  NOTE_G4,-2,

  //continues from 17

  NOTE_B5,4, NOTE_G5,8, NOTE_A5,8, NOTE_B5,8, NOTE_G5,8,//17
  NOTE_A5,4, NOTE_D5,8, NOTE_E5,8, NOTE_FS5,8, NOTE_D5,8,
  NOTE_G5,4, NOTE_E5,8, NOTE_FS5,8, NOTE_G5,8, NOTE_D5,8,
  NOTE_CS5,4, NOTE_B4,8, NOTE_CS5,8, NOTE_A4,4,
  NOTE_A4,8, NOTE_B4,8, NOTE_CS5,8, NOTE_D5,8, NOTE_E5,8, NOTE_FS5,8,

  NOTE_G5,4, NOTE_FS5,4, NOTE_E5,4, //22
  NOTE_FS5,4, NOTE_A4,4, NOTE_CS5,4,
  NOTE_D5,-2,
  NOTE_D5,4, NOTE_G4,8, NOTE_FS5,8, NOTE_G4,4,
  NOTE_E5,4,  NOTE_G4,8, NOTE_FS4,8, NOTE_G4,4,
  NOTE_D5,4, NOTE_C5,4, NOTE_B4,4,

  NOTE_A4,8, NOTE_G4,8, NOTE_FS4,8, NOTE_G4,8, NOTE_A4,4, //28
  NOTE_D4,8, NOTE_E4,8, NOTE_FS4,8, NOTE_G4,8, NOTE_A4,8, NOTE_B4,8,
  NOTE_C5,4, NOTE_B4,4, NOTE_A4,4,
  NOTE_B4,8, NOTE_D5,8, NOTE_G4,4, NOTE_FS4,4,
  NOTE_G4,-2,

  //Song of storms - Legend of Zelda

  NOTE_D4,4, NOTE_A4,4, NOTE_A4,4,
  REST,8, NOTE_E4,8, NOTE_B4,2,
  NOTE_F4,4, NOTE_C5,4, NOTE_C5,4,
  REST,8, NOTE_E4,8, NOTE_B4,2,
  NOTE_D4,4, NOTE_A4,4, NOTE_A4,4,
  REST,8, NOTE_E4,8, NOTE_B4,2,
  NOTE_F4,4, NOTE_C5,4, NOTE_C5,4,
  REST,8, NOTE_E4,8, NOTE_B4,2,
  NOTE_D4,8, NOTE_F4,8, NOTE_D5,2,
  
  NOTE_D4,8, NOTE_F4,8, NOTE_D5,2,
  NOTE_E5,-4, NOTE_F5,8, NOTE_E5,8, NOTE_E5,8,
  NOTE_E5,8, NOTE_C5,8, NOTE_A4,2,
  NOTE_A4,4, NOTE_D4,4, NOTE_F4,8, NOTE_G4,8,
  NOTE_A4,-2,
  NOTE_A4,4, NOTE_D4,4, NOTE_F4,8, NOTE_G4,8,
  NOTE_E4,-2,
  NOTE_D4,8, NOTE_F4,8, NOTE_D5,2,
  NOTE_D4,8, NOTE_F4,8, NOTE_D5,2,

  NOTE_E5,-4, NOTE_F5,8, NOTE_E5,8, NOTE_E5,8,
  NOTE_E5,8, NOTE_C5,8, NOTE_A4,2,
  NOTE_A4,4, NOTE_D4,4, NOTE_F4,8, NOTE_G4,8,
  NOTE_A4,2, NOTE_A4,4,
  NOTE_D4,1,

  //Vampire Killer - Castlevania series

  NOTE_E5,16, NOTE_E5,8, NOTE_D5,16, REST,16, NOTE_CS5,-4, NOTE_E4,8, NOTE_FS4,16, NOTE_G4,16, NOTE_A4,16,
  
  NOTE_B4,-8, NOTE_E4,-8, NOTE_B4,8, NOTE_A4,16, NOTE_D5,-4, //7
  NOTE_E5,16, NOTE_E5,8, NOTE_D5,16, REST,16, NOTE_CS5,-4, NOTE_E4,8, NOTE_FS4,16, NOTE_G4,16, NOTE_A4,16,
  NOTE_B4,-8, NOTE_E4,-8, NOTE_B4,8, NOTE_A4,16, NOTE_D4,-4,
  REST,8, NOTE_E5,8, REST,16, NOTE_B5,16, REST,8, NOTE_AS5,16, NOTE_B5,16, NOTE_AS5,16, NOTE_G5,16, REST,4,

  NOTE_B5,8, NOTE_B5,16, NOTE_AS5,16, REST,16, NOTE_AS5,16, NOTE_A5,16, REST,16, NOTE_B5,16, NOTE_G5,16, NOTE_B5,16, NOTE_AS5,16, REST,16, NOTE_B5,16, NOTE_A5,16, NOTE_G5,16,//11
  REST,8, NOTE_E5,8, REST,16, NOTE_B5,16, REST,8, NOTE_AS5,16, NOTE_B5,16, NOTE_AS5,16, NOTE_G5,16, REST,4,
  NOTE_B5,8, NOTE_B5,16, NOTE_AS5,16, REST,16, NOTE_AS5,16, NOTE_A5,16, REST,16, NOTE_B5,16, NOTE_G5,16, NOTE_B5,16, NOTE_AS5,16, REST,16, NOTE_B5,16, NOTE_A5,16, NOTE_G5,16,

  NOTE_DS4,-8, NOTE_FS4,-8, NOTE_C5,8, NOTE_B4,-8, NOTE_G4,-8, NOTE_E4,8, //14
  NOTE_DS4,-8, NOTE_FS4,-8, NOTE_C5,8, NOTE_B4,-8, NOTE_G4,-8, REST,8,
  NOTE_DS4,-8, NOTE_FS4,-8, NOTE_C5,8, NOTE_B4,-8, NOTE_G4,-8, NOTE_E4,8,
  NOTE_DS4,-8, NOTE_FS4,-8, NOTE_C5,8, NOTE_B4,-8, NOTE_CS5,-8, NOTE_DS5,8,

  NOTE_E5,16, NOTE_E5,16, NOTE_E4,16, NOTE_E4,-2,//18
  NOTE_C4,8, NOTE_C4,8, NOTE_E4,16, NOTE_G4,-8, NOTE_D4,8, NOTE_D4,8, NOTE_FS4,16, NOTE_A4,-8,
  NOTE_E5,16, NOTE_E5,16, NOTE_E4,16, NOTE_E4,-2,
  NOTE_C4,8, NOTE_C4,8, NOTE_E4,16, NOTE_G4,-8, NOTE_D4,8, NOTE_D4,8, NOTE_B3,16, NOTE_D4,-8,

  //repeats a second time

  NOTE_E5,16, NOTE_E5,8, NOTE_D5,16, REST,16, NOTE_CS5,-4, NOTE_E4,8, NOTE_FS4,16, NOTE_G4,16, NOTE_A4,16,
  
  NOTE_B4,-8, NOTE_E4,-8, NOTE_B4,8, NOTE_A4,16, NOTE_D5,-4, //7
  NOTE_E5,16, NOTE_E5,8, NOTE_D5,16, REST,16, NOTE_CS5,-4, NOTE_E4,8, NOTE_FS4,16, NOTE_G4,16, NOTE_A4,16,
  NOTE_B4,-8, NOTE_E4,-8, NOTE_B4,8, NOTE_A4,16, NOTE_D4,-4,
  REST,8, NOTE_E5,8, REST,16, NOTE_B5,16, REST,8, NOTE_AS5,16, NOTE_B5,16, NOTE_AS5,16, NOTE_G5,16, REST,4,

  NOTE_B5,8, NOTE_B5,16, NOTE_AS5,16, REST,16, NOTE_AS5,16, NOTE_A5,16, REST,16, NOTE_B5,16, NOTE_G5,16, NOTE_B5,16, NOTE_AS5,16, REST,16, NOTE_B5,16, NOTE_A5,16, NOTE_G5,16,//11
  REST,8, NOTE_E5,8, REST,16, NOTE_B5,16, REST,8, NOTE_AS5,16, NOTE_B5,16, NOTE_AS5,16, NOTE_G5,16, REST,4,
  NOTE_B5,8, NOTE_B5,16, NOTE_AS5,16, REST,16, NOTE_AS5,16, NOTE_A5,16, REST,16, NOTE_B5,16, NOTE_G5,16, NOTE_B5,16, NOTE_AS5,16, REST,16, NOTE_B5,16, NOTE_A5,16, NOTE_G5,16,

  NOTE_DS4,-8, NOTE_FS4,-8, NOTE_C5,8, NOTE_B4,-8, NOTE_G4,-8, NOTE_E4,8, //14
  NOTE_DS4,-8, NOTE_FS4,-8, NOTE_C5,8, NOTE_B4,-8, NOTE_G4,-8, REST,8,
  NOTE_DS4,-8, NOTE_FS4,-8, NOTE_C5,8, NOTE_B4,-8, NOTE_G4,-8, NOTE_E4,8,
  NOTE_DS4,-8, NOTE_FS4,-8, NOTE_C5,8, NOTE_B4,-8, NOTE_CS5,-8, NOTE_DS5,8,

  NOTE_E5,16, NOTE_E5,16, NOTE_E4,16, NOTE_E4,-2,//18
  NOTE_C4,8, NOTE_C4,8, NOTE_E4,16, NOTE_G4,-8, NOTE_D4,8, NOTE_D4,8, NOTE_FS4,16, NOTE_A4,-8,
  NOTE_E5,16, NOTE_E5,16, NOTE_E4,16, NOTE_E4,-2,
  NOTE_C4,8, NOTE_C4,8, NOTE_E4,16, NOTE_G4,-8, NOTE_D4,8, NOTE_D4,8, NOTE_B3,16, NOTE_D4,-8,

  //Brahms' Lullaby (Wiegenlied)

  NOTE_G4, 4, NOTE_G4, 4, //1
  NOTE_AS4, -4, NOTE_G4, 8, NOTE_G4, 4,
  NOTE_AS4, 4, REST, 4, NOTE_G4, 8, NOTE_AS4, 8,
  NOTE_DS5, 4, NOTE_D5, -4, NOTE_C5, 8,
  NOTE_C5, 4, NOTE_AS4, 4, NOTE_F4, 8, NOTE_G4, 8,
  NOTE_GS4, 4, NOTE_F4, 4, NOTE_F4, 8, NOTE_G4, 8,
  NOTE_GS4, 4, REST, 4, NOTE_F4, 8, NOTE_GS4, 8,
  NOTE_D5, 8, NOTE_C5, 8, NOTE_AS4, 4, NOTE_D5, 4,

  NOTE_DS5, 4, REST, 4, NOTE_DS4, 8, NOTE_DS4, 8, //8
  NOTE_DS5, 2, NOTE_C5, 8, NOTE_GS4, 8,
  NOTE_AS4, 2, NOTE_G4, 8, NOTE_DS4, 8,
  NOTE_GS4, 4, NOTE_AS4, 4, NOTE_C5, 4,
  NOTE_AS4, 2, NOTE_DS4, 8, NOTE_DS4, 8,
  NOTE_DS5, 2, NOTE_C5, 8, NOTE_GS4, 8,
  NOTE_AS4, 2, NOTE_G4, 8, NOTE_DS4, 8,
  NOTE_AS4, 4, NOTE_G4, 4, NOTE_DS4, 4,
  NOTE_DS4, 2,

  //Mii Channel's theme

  NOTE_FS4,8, REST,8, NOTE_A4,8, NOTE_CS5,8, REST,8,NOTE_A4,8, REST,8, NOTE_FS4,8, //1
  NOTE_D4,8, NOTE_D4,8, NOTE_D4,8, REST,8, REST,4, REST,8, NOTE_CS4,8,
  NOTE_D4,8, NOTE_FS4,8, NOTE_A4,8, NOTE_CS5,8, REST,8, NOTE_A4,8, REST,8, NOTE_F4,8,
  NOTE_E5,-4, NOTE_DS5,8, NOTE_D5,8, REST,8, REST,4,
  
  NOTE_GS4,8, REST,8, NOTE_CS5,8, NOTE_FS4,8, REST,8,NOTE_CS5,8, REST,8, NOTE_GS4,8, //5
  REST,8, NOTE_CS5,8, NOTE_G4,8, NOTE_FS4,8, REST,8, NOTE_E4,8, REST,8,
  NOTE_E4,8, NOTE_E4,8, NOTE_E4,8, REST,8, REST,4, NOTE_E4,8, NOTE_E4,8,
  NOTE_E4,8, REST,8, REST,4, NOTE_DS4,8, NOTE_D4,8, 

  NOTE_CS4,8, REST,8, NOTE_A4,8, NOTE_CS5,8, REST,8,NOTE_A4,8, REST,8, NOTE_FS4,8, //9
  NOTE_D4,8, NOTE_D4,8, NOTE_D4,8, REST,8, NOTE_E5,8, NOTE_E5,8, NOTE_E5,8, REST,8,
  REST,8, NOTE_FS4,8, NOTE_A4,8, NOTE_CS5,8, REST,8, NOTE_A4,8, REST,8, NOTE_F4,8,
  NOTE_E5,2, NOTE_D5,8, REST,8, REST,4,

  NOTE_B4,8, NOTE_G4,8, NOTE_D4,8, NOTE_CS4,4, NOTE_B4,8, NOTE_G4,8, NOTE_CS4,8, //13
  NOTE_A4,8, NOTE_FS4,8, NOTE_C4,8, NOTE_B3,4, NOTE_F4,8, NOTE_D4,8, NOTE_B3,8,
  NOTE_E4,8, NOTE_E4,8, NOTE_E4,8, REST,4, REST,4, NOTE_AS4,4,
  NOTE_CS5,8, NOTE_D5,8, NOTE_FS5,8, NOTE_A5,8, REST,8, REST,4, 

  REST,2, NOTE_A3,4, NOTE_AS3,4, //17 
  NOTE_A3,-4, NOTE_A3,8, NOTE_A3,2,
  REST,4, NOTE_A3,8, NOTE_AS3,8, NOTE_A3,8, NOTE_F4,4, NOTE_C4,8,
  NOTE_A3,-4, NOTE_A3,8, NOTE_A3,2,

  REST,2, NOTE_B3,4, NOTE_C4,4, //21
  NOTE_CS4,-4, NOTE_C4,8, NOTE_CS4,2,
  REST,4, NOTE_CS4,8, NOTE_C4,8, NOTE_CS4,8, NOTE_GS4,4, NOTE_DS4,8,
  NOTE_CS4,-4, NOTE_DS4,8, NOTE_B3,1,
  
  NOTE_E4,4, NOTE_E4,4, NOTE_E4,4, REST,8,//25

  //repeats 1-25

  NOTE_FS4,8, REST,8, NOTE_A4,8, NOTE_CS5,8, REST,8,NOTE_A4,8, REST,8, NOTE_FS4,8, //1
  NOTE_D4,8, NOTE_D4,8, NOTE_D4,8, REST,8, REST,4, REST,8, NOTE_CS4,8,
  NOTE_D4,8, NOTE_FS4,8, NOTE_A4,8, NOTE_CS5,8, REST,8, NOTE_A4,8, REST,8, NOTE_F4,8,
  NOTE_E5,-4, NOTE_DS5,8, NOTE_D5,8, REST,8, REST,4,
  
  NOTE_GS4,8, REST,8, NOTE_CS5,8, NOTE_FS4,8, REST,8,NOTE_CS5,8, REST,8, NOTE_GS4,8, //5
  REST,8, NOTE_CS5,8, NOTE_G4,8, NOTE_FS4,8, REST,8, NOTE_E4,8, REST,8,
  NOTE_E4,8, NOTE_E4,8, NOTE_E4,8, REST,8, REST,4, NOTE_E4,8, NOTE_E4,8,
  NOTE_E4,8, REST,8, REST,4, NOTE_DS4,8, NOTE_D4,8, 

  NOTE_CS4,8, REST,8, NOTE_A4,8, NOTE_CS5,8, REST,8,NOTE_A4,8, REST,8, NOTE_FS4,8, //9
  NOTE_D4,8, NOTE_D4,8, NOTE_D4,8, REST,8, NOTE_E5,8, NOTE_E5,8, NOTE_E5,8, REST,8,
  REST,8, NOTE_FS4,8, NOTE_A4,8, NOTE_CS5,8, REST,8, NOTE_A4,8, REST,8, NOTE_F4,8,
  NOTE_E5,2, NOTE_D5,8, REST,8, REST,4,

  NOTE_B4,8, NOTE_G4,8, NOTE_D4,8, NOTE_CS4,4, NOTE_B4,8, NOTE_G4,8, NOTE_CS4,8, //13
  NOTE_A4,8, NOTE_FS4,8, NOTE_C4,8, NOTE_B3,4, NOTE_F4,8, NOTE_D4,8, NOTE_B3,8,
  NOTE_E4,8, NOTE_E4,8, NOTE_E4,8, REST,4, REST,4, NOTE_AS4,4,
  NOTE_CS5,8, NOTE_D5,8, NOTE_FS5,8, NOTE_A5,8, REST,8, REST,4, 

  REST,2, NOTE_A3,4, NOTE_AS3,4, //17 
  NOTE_A3,-4, NOTE_A3,8, NOTE_A3,2,
  REST,4, NOTE_A3,8, NOTE_AS3,8, NOTE_A3,8, NOTE_F4,4, NOTE_C4,8,
  NOTE_A3,-4, NOTE_A3,8, NOTE_A3,2,

  REST,2, NOTE_B3,4, NOTE_C4,4, //21
  NOTE_CS4,-4, NOTE_C4,8, NOTE_CS4,2,
  REST,4, NOTE_CS4,8, NOTE_C4,8, NOTE_CS4,8, NOTE_GS4,4, NOTE_DS4,8,
  NOTE_CS4,-4, NOTE_DS4,8, NOTE_B3,1,
  
  NOTE_E4,4, NOTE_E4,4, NOTE_E4,4, REST,8,//25

  //finishes with 26
  //NOTE_FS4,8, REST,8, NOTE_A4,8, NOTE_CS5,8, REST,8, NOTE_A4,8, REST,8, NOTE_FS4,8

  //Alle meine Entchen
  NOTE_C4, 4, NOTE_D4, 4, NOTE_E4, 4, NOTE_F4, 4, NOTE_G4, 2, NOTE_G4, 2, NOTE_A4, 4, NOTE_A4, 4, NOTE_A4, 4, NOTE_A4, 4, NOTE_G4, 1, NOTE_A4, 4, NOTE_A4, 4, NOTE_A4, 4, NOTE_A4, 4,
  NOTE_G4, 2, REST, 4, NOTE_F4, 4, NOTE_F4, 4, NOTE_F4, 4, NOTE_F4, 4, NOTE_E4, 2, NOTE_E4, 2, NOTE_D4, 4, NOTE_D4, 4, NOTE_D4, 4, NOTE_D4, 4, NOTE_C4, 2,

  //Anthem of the USSR

  NOTE_G4, 8, NOTE_C5, 4, NOTE_G4, 6, NOTE_A4, 16, NOTE_B4, 4, NOTE_E4, 8, NOTE_E4, 8, 

  NOTE_A4, 4, NOTE_G4, 6, NOTE_F4, 16, NOTE_G4, 4, NOTE_C4, 8, NOTE_C4, 8, 

  NOTE_D4, 4, NOTE_D4, 8, NOTE_E4, 8, NOTE_F4, 4, NOTE_F4, 8, NOTE_G4, 8, NOTE_A4, 4, NOTE_B4, 8, NOTE_C5, 8, NOTE_D5, 2, 

  NOTE_E5, 4, NOTE_D5, 6, NOTE_C5, 16, NOTE_D5, 4, NOTE_B4, 8, NOTE_G4, 8, 

  NOTE_C5, 4, NOTE_B4, 6, NOTE_A4, 16, NOTE_B4, 4, NOTE_E4, 8, NOTE_E4, 8, 

  NOTE_A4, 4, NOTE_G4, 6, NOTE_F4, 16, NOTE_G4, 4, NOTE_C4, 6, NOTE_C4, 16, 

  NOTE_C5, 4, NOTE_B4, 6, NOTE_A4, 16, NOTE_G4, 8, NOTE_B4, 8, NOTE_C5, 8, NOTE_D5, 8, 

  NOTE_E5, 2, NOTE_D5, 8, NOTE_C5, 8, NOTE_B4, 8, NOTE_C5, 8, NOTE_D5, 3, NOTE_G4, 8, NOTE_G4, 8, NOTE_B4, 8, NOTE_C5, 8, NOTE_D5, 8,

  NOTE_C5, 2, NOTE_B4, 8, NOTE_A4, 8, NOTE_G4, 8, NOTE_A4, 8, NOTE_B4, 8, NOTE_E4, 8, NOTE_E4, 8, NOTE_G4, 8, NOTE_A4, 8, NOTE_B4, 8,

  NOTE_C5, 4, NOTE_A4, 6, NOTE_B4, 16, NOTE_C5, 4, NOTE_A4, 6, NOTE_B4, 16, NOTE_C5, 4, NOTE_A4, 8, NOTE_C5, 8, NOTE_F5, 2,

  NOTE_F5, 2, NOTE_E5, 8, NOTE_D5, 8, NOTE_C5, 8, NOTE_D5, 8, NOTE_E5, 3, NOTE_C5, 8, NOTE_C5, 2,

  NOTE_D5, 2, NOTE_C5, 8, NOTE_B4, 8, NOTE_A4, 8, NOTE_B4, 8, NOTE_C5, 3, NOTE_A4, 8, NOTE_A4, 2,

  NOTE_C5, 4, NOTE_B4, 6, NOTE_A4, 16, NOTE_G4, 4, NOTE_C4, 4, NOTE_G4, 2, NOTE_A4, 4, NOTE_B4, 4, NOTE_C5, 1,
};

#endif